<?xml version="1.0" encoding="utf-8"?>
<!-- Generator: Adobe Illustrator 25.2.1, SVG Export Plug-In . SVG Version: 6.00 Build 0)  -->
<svg version="1.1" id="rezo-white" xmlns="http://www.w3.org/2000/svg" xmlns:xlink="http://www.w3.org/1999/xlink" x="0px" y="0px"
	 viewBox="0 0 561.1 793.7" style="enable-background:new 0 0 561.1 793.7;" xml:space="preserve">
<style type="text/css">
	.st0{fill:#B1B1B1;}
	.st1{fill:url(#SVGID_1_);}
	.st2{fill:none;}
	.st3{fill:url(#SVGID_2_);}
	.st4{fill:url(#SVGID_3_);}
	.st5{fill:#9D9D9D;}
</style>
<path class="st0" d="M346.9,784.2c-0.8,0.3-1.6,0.6-2.4,0.8c0.2,0,0.4-0.1,0.6-0.1c4.5-1.5,8.9-3.2,13.2-5c2.9-1.2,5.7-2.5,8.5-3.8
	C360.3,779.1,353.7,781.7,346.9,784.2z"/>
<radialGradient id="SVGID_1_" cx="125.0608" cy="339.8656" r="402.9048" gradientTransform="matrix(1.2273 0 0 -1.2272 92.6345 814.3634)" gradientUnits="userSpaceOnUse">
	<stop  offset="0" style="stop-color:#FFFFFF"/>
	<stop  offset="0.1863" style="stop-color:#FBFBFB"/>
	<stop  offset="0.3639" style="stop-color:#F0F0F0"/>
	<stop  offset="0.5379" style="stop-color:#DDDDDD"/>
	<stop  offset="0.7087" style="stop-color:#C2C2C2"/>
	<stop  offset="0.7858" style="stop-color:#B3B3B3"/>
</radialGradient>
<path class="st1" d="M492.2,562.8c0,81.8-38.4,153.7-96.2,194.2c-1.6,1.2-3.2,2.3-4.8,3.4c-0.8,0.5-1.6,1.1-2.4,1.6
	c-0.3,0.2-0.5,0.4-0.8,0.5c-0.6,0.4-1.1,0.7-1.7,1.1c-0.6,0.4-1.1,0.8-1.7,1.1c-1.2,0.8-2.4,1.5-3.6,2.2c-0.7,0.4-1.3,0.8-2,1.2
	c-0.8,0.5-1.7,1-2.5,1.5c-0.8,0.5-1.7,1-2.5,1.4c-0.8,0.4-1.5,0.8-2.2,1.2c-0.2,0.1-0.4,0.2-0.7,0.3c-0.7,0.4-1.5,0.8-2.2,1.1
	c-0.4,0.2-0.8,0.4-1.2,0.6c-0.4,0.2-0.8,0.4-1.2,0.6c-0.7,0.4-1.5,0.7-2.2,1.1c-6.5,3.1-13.2,5.7-19.9,8.2c-0.8,0.3-1.6,0.6-2.4,0.8
	c-2.4,0.6-4.7,1.1-7.1,1.6c-0.5,0.1-0.9,0.2-1.4,0.3c-1.1,0.2-2.2,0.5-3.3,0.7c-2.5,0.5-4.9,1-7.4,1.4c-1.3,0.2-2.7,0.5-4,0.7
	c-0.6,0.1-1.2,0.2-1.7,0.3c-0.9,0.1-1.8,0.3-2.6,0.4c-1.5,0.2-3,0.5-4.5,0.7c-13.6,1.8-27.1,2.8-40.4,3c0.1,0,0.1,0,0.2,0
	c-12.6,0.1-25-0.5-37.2-1.8c-51.2-5.5-101.4-23.2-142.8-53.7C51.1,710.1,21.1,670.7,7.8,625c-1-3.4-1.9-6.7-2.7-10.1
	C-7,563,3,508.4,30.4,462.4c3.1-5.2,6.4-10.2,9.9-15.2c-1.3,2.4-2.5,4.8-3.7,7.3c-6,12.6-10.5,25.9-13.4,39.5v0c0,0,0,0,0,0.1v0
	c-0.9,4-1.6,8.1-2.1,12.2c-1.3,9.3-1.8,18.7-1.5,28.1c0.4,11.7,1.9,23.3,4.5,34.7c5.5,23.7,15.6,45.8,29.3,65.3
	c19.8,28.1,47.1,50.9,78.9,65.7c52,24,117.5,31.4,170.3,5.4c24.1-11.9,43.3-29.4,58.5-50.5c5.2-7.2,10-14.8,14.3-22.8
	c7-12.8,12.9-26.2,17.2-39.9c5-16,8-32.5,8.4-49.6c0-1.8,0-3.6,0-5.3c-0.2-29.6-7.5-59.2-21.6-85.3c-16.2-30-42-53.9-71.9-70.7
	c-0.2-11.5-0.3-23-0.5-34.6c4,1.8,7.9,3.8,11.7,6c13.4,8.1,25,19.2,33.8,32c5.7,8.2,10.2,17.3,13.5,26.7c0.5,1.6,2,5.7,3.5,10.2
	c1.5,3.8,3.1,8.4,4.2,12.6c2.6-4.3,4.3-9.1,5.3-14.2c6.6-33.2-8.8-63.6-28.4-89.4c-26.5-34.8-54-67.4-74.3-106.6
	c-1.5-2.8-2.9-5.6-4.4-8.4c0,1.7,0,3.5,0.1,5.2c0.1,6.5,0.2,13.1,0.2,19.6v125c-2.2-0.8-4.5-1.5-6.7-2.2c-4-1.2-8.1-2.4-12.2-3.4
	c-14.8-14.7-24.6-35.2-32.7-53.7c-11-25.1-16.5-52.7-16.5-80c0-5.8,0.3-11.6,0.7-17.3c4.2-48.3,26.2-93.4,59.1-129
	c33.8-36.7,77.6-63,125-78.7c0,0,0,0,0,0c0.5-0.2,1.1-0.4,1.6-0.5c-0.7,0.7-1.3,1.4-2,2.1c-4.5,4.5-9,8.9-13.4,13.3
	C370,21,365,26.2,360.2,31.7c0,0,0,0,0,0c-6.7,8.4-12.8,17.4-18.3,26.6c-9.7,16.6-17.4,34.4-22.7,52.8c0,0.1,0,0.2-0.1,0.2
	c-1.7,6.1-3.2,12.2-4.4,18.4c0,0,0,0,0,0c-0.4,2.2-0.8,4.5-1.1,6.8c0,0.2-0.1,0.4-0.1,0.7c-0.2,1.4-0.4,2.8-0.5,4.1
	c-0.7,5.7-1.2,11.4-1.4,17.1c-0.1,1.6-0.1,3.2-0.2,4.8c-0.1,2.5-0.1,5.1,0,7.6c0.2,17,2.6,33.6,7.1,49.8c0.2,0.9,0.5,1.8,0.8,2.7
	c0.3,0.9,0.5,1.8,0.8,2.7c0.3,0.9,0.5,1.8,0.8,2.7c0.3,1.1,0.7,2.1,1,3.2c0.4,1.1,0.8,2.2,1.2,3.4c0.3,0.8,0.6,1.6,0.8,2.3
	c0.1,0.2,0.2,0.4,0.2,0.6c0.3,0.9,0.7,1.8,1,2.7c0.4,1,0.8,1.9,1.2,2.9c0.2,0.6,0.5,1.1,0.7,1.7c0.4,0.9,0.8,1.9,1.2,2.8
	c0.5,1.3,1.1,2.6,1.7,3.9c0,0,0,0.1,0,0.1c0.5,1.2,1.1,2.4,1.6,3.5c0.1,0.2,0.2,0.4,0.3,0.5c0.5,1.1,1.1,2.3,1.7,3.5
	c0,0,0,0.1,0.1,0.1c0.7,1.3,1.3,2.6,2,3.8c0.3,0.6,0.7,1.3,1,1.9c0.3,0.6,0.7,1.3,1,1.9c1.2,2.3,2.5,4.5,3.9,6.7
	c0.6,1.1,1.3,2.1,2,3.2c0,0,0.1,0.1,0.1,0.2c0,0,0,0.1,0.1,0.1c0,0.1,0.1,0.2,0.1,0.2l1.8,2.9c0.5,0.8,1,1.5,1.5,2.2
	c0.5,0.8,1,1.5,1.5,2.3c0.4,0.6,0.9,1.3,1.3,1.9c1.1,1.6,2.2,3.2,3.4,4.7c0.5,0.7,1.1,1.5,1.6,2.2c8.8,11.7,19.2,21.4,28.8,32.3
	c0,0,0.2,0.2,0.4,0.4c0,0,0.1,0.1,0.2,0.2c0.3,0.4,0.9,1,1.5,1.7c0.1,0.1,0.2,0.3,0.4,0.4c0.2,0.3,0.5,0.6,0.8,0.9
	c0.4,0.4,0.8,0.9,1.2,1.4c0.7,0.9,1.5,1.8,2.5,2.9c0.4,0.4,0.7,0.9,1.1,1.3c0.2,0.2,0.4,0.5,0.6,0.7c0.4,0.5,0.8,0.9,1.2,1.4
	c0.2,0.3,0.4,0.5,0.6,0.8c0.4,0.5,0.8,1,1.3,1.6c0.7,0.8,1.4,1.6,2.1,2.5c0.4,0.4,0.7,0.9,1.1,1.3c0.5,0.6,0.9,1.1,1.4,1.7
	c0.3,0.3,0.6,0.7,0.8,1c0.4,0.5,0.8,0.9,1.1,1.4c0.5,0.7,1.1,1.3,1.6,2c1,1.2,2,2.5,3.1,3.8c0.3,0.3,0.5,0.7,0.8,1
	c0.3,0.3,0.5,0.7,0.8,1.1c0,0,0.1,0.1,0.1,0.1c0.1,0.2,0.3,0.3,0.4,0.5c0.5,0.6,1,1.3,1.6,2c0.6,0.8,1.2,1.5,1.8,2.3
	c0.6,0.8,1.2,1.5,1.8,2.3c3,3.9,6.2,8,9.3,12.4c0.6,0.9,1.3,1.7,1.9,2.6c1.3,1.8,2.7,3.7,4,5.5c0.7,1,1.5,2.1,2.2,3.1
	c0.4,0.5,0.8,1.1,1.1,1.6c0.4,0.5,0.7,1.1,1.1,1.6c0.8,1.1,1.5,2.1,2.2,3.2c0.7,1.1,1.5,2.1,2.2,3.2c0.7,1.1,1.5,2.2,2.2,3.2
	c1.4,2.2,2.9,4.4,4.3,6.6c0.7,1.1,1.4,2.2,2.1,3.3c0.7,1.1,1.4,2.2,2,3.3c0.4,0.5,0.7,1.1,1,1.7c1,1.7,2,3.3,3,5
	c0.3,0.5,0.6,1.1,1,1.7c0.5,0.8,1,1.7,1.4,2.5c0.2,0.4,0.5,0.8,0.7,1.2c0.2,0.4,0.5,0.8,0.7,1.2c1.3,2.3,2.5,4.6,3.7,6.9
	c0.5,1,1,2,1.5,3.1c0.3,0.7,0.7,1.3,1,2c0,0.1,0.1,0.1,0.1,0.2c0,0.1,0.1,0.2,0.1,0.2c0.2,0.5,0.5,1,0.7,1.6
	c0.5,0.9,0.9,1.9,1.3,2.8c0.4,0.9,0.8,1.7,1.1,2.5c0,0.1,0.1,0.1,0.1,0.2c0,0.1,0.1,0.2,0.1,0.2c0.4,0.8,0.7,1.6,1,2.4
	c0.1,0.3,0.2,0.5,0.3,0.8c0.3,0.7,0.6,1.4,0.9,2.2c0.3,0.7,0.5,1.3,0.8,2c0.2,0.6,0.4,1.2,0.6,1.7c0.4,1.2,0.9,2.4,1.2,3.7
	c0.1,0.4,0.3,0.8,0.4,1.2c0,0.1,0,0.2,0.1,0.2c0,0.1,0.1,0.3,0.1,0.4c0,0.1,0.1,0.2,0.1,0.3c0.1,0.3,0.2,0.6,0.2,0.8
	c0.1,0.3,0.2,0.6,0.2,0.8c0.2,0.7,0.4,1.4,0.6,2.1c4.2,9.9,7.8,20.2,10.7,30.8c0.1,0.4,0.2,0.7,0.3,1.1
	C489.2,517.5,492.2,539.7,492.2,562.8z"/>
<path class="st2" d="M378.9,420.2c-1,5.2-2.8,10-5.3,14.2c-1.1-4.2-2.7-8.7-4.2-12.6c-1.4-4.5-2.9-8.6-3.5-10.2
	c-3.2-9.5-7.8-18.5-13.5-26.7c-8.8-12.9-20.4-24-33.8-32c-3.7-2.2-7.6-4.3-11.7-6c0.2,11.5,0.3,23,0.5,34.6
	c0.4,32.3,0.9,64.5,1.3,96.8c0.5,35.6,4.8,76.9-15.8,108.2c-3.5,5.2-7.6,10-12.2,14.2c-12.2,11.2-27.9,18.7-44.3,21.8
	c-16.6,3.2-34.2,2.2-49.8-4.5c-15.5-6.7-28.8-19.2-34.9-35c-6.2-16.1-4.5-34.7,2.9-50.2c5.7-12,14.5-22.2,25.1-30.1
	c7.5-5.6,15.9-10.1,24.6-13.3c10.6-3.8,22-5.8,33.3-5.8h1.2c3.1,0,27.6,1.8,33.2,5.1v-248c0-6.5-0.1-13.1-0.2-19.6
	c0-1.7,0-3.5-0.1-5.2c1.5,2.8,2.9,5.6,4.4,8.4c20.3,39.2,47.8,71.7,74.3,106.6C370,356.5,385.4,387,378.9,420.2z"/>
<radialGradient id="SVGID_2_" cx="95.801" cy="225.3906" r="180.4711" fx="93.4935" fy="350.4365" gradientTransform="matrix(1.2273 0 0 -1.2272 92.6345 814.3634)" gradientUnits="userSpaceOnUse">
	<stop  offset="0.2991" style="stop-color:#FFFFFF"/>
	<stop  offset="0.5335" style="stop-color:#FCFCFC"/>
	<stop  offset="0.6744" style="stop-color:#F4F4F4"/>
	<stop  offset="0.7905" style="stop-color:#E6E6E6"/>
	<stop  offset="0.8932" style="stop-color:#D2D2D2"/>
	<stop  offset="0.9861" style="stop-color:#B8B8B8"/>
	<stop  offset="1" style="stop-color:#B3B3B3"/>
</radialGradient>
<path class="st3" d="M401,537.3c0,1.8,0,3.6,0,5.3c-0.4,17.1-3.3,33.6-8.4,49.6c-4.3,13.7-10.2,27-17.2,39.9
	c-4.3,8-9.1,15.6-14.3,22.8c-15.2,21.1-34.4,38.6-58.5,50.5c-52.8,26-118.2,18.7-170.3-5.4c-31.8-14.7-59.1-37.5-78.9-65.7
	C39.6,614.8,29.5,592.7,24,569c-2.6-11.4-4.2-23-4.5-34.7c-0.3-9.4,0.2-18.8,1.5-28.1c0.6-4.1,1.3-8.2,2.1-12.2v0c0,0,0,0,0-0.1v0
	c2.9-13.6,7.4-26.9,13.4-39.5c1.2-2.5,2.4-4.9,3.7-7.3c6.4-11.9,14.3-23,23.3-33c0,0,0,0,0,0c27.6-30.9,66-52.1,107.6-58.1
	c25.6-3.7,52-2.8,77.3,2.9c1.6,0.3,3.1,0.7,4.7,1.1c4.1,1,8.1,2.1,12.2,3.4c2.2,0.7,4.5,1.4,6.7,2.2v123c-5.6-3.3-30.1-5.1-33.2-5.1
	h-1.2c-11.3,0-22.7,2-33.3,5.8c-8.8,3.2-17.1,7.6-24.6,13.3c-10.5,7.9-19.4,18.1-25.1,30.1c-7.4,15.6-9,34.1-2.9,50.2
	c6.1,15.8,19.3,28.4,34.9,35c15.6,6.7,33.2,7.7,49.8,4.5c16.4-3.2,32.1-10.7,44.3-21.8c4.6-4.2,8.7-9,12.2-14.2
	c20.7-31.2,16.3-72.5,15.8-108.2c-0.4-32.3-0.9-64.5-1.3-96.8c29.9,16.7,55.7,40.7,71.9,70.7C393.5,478.1,400.8,507.7,401,537.3z"/>
<linearGradient id="SVGID_3_" gradientUnits="userSpaceOnUse" x1="563.8817" y1="165.8065" x2="162.3773" y2="567.311" gradientTransform="matrix(1 0 0 -1 0 795.9603)">
	<stop  offset="3.594250e-07" style="stop-color:#FFFFFF"/>
	<stop  offset="1" style="stop-color:#B3B3B3"/>
</linearGradient>
<path class="st4" d="M559.7,540.6c-5,52.7-23.4,102.7-52.8,145c-15,18-32.8,34.3-52.9,48.5c-12.1,8.8-24.9,16.7-38.3,23.6
	c-13.8,7.2-28.2,13.3-43,18.4c-12.2,4.2-24.7,8.4-37.4,11c-7.5,1.5-15.1,2.8-22.8,3.8c-13.8,1.8-27.4,2.8-40.8,3c-0.7,0-1.4,0-2.1,0
	h-0.1c-0.1,0-0.1,0-0.2,0c13.3-0.2,26.8-1.2,40.4-3c1.5-0.2,3-0.4,4.5-0.7c0.9-0.1,1.7-0.2,2.6-0.4c0.6-0.1,1.2-0.2,1.7-0.3
	c1.3-0.2,2.7-0.5,4-0.7c2.5-0.4,4.9-0.9,7.4-1.4c1.1-0.2,2.2-0.4,3.3-0.7c0.5-0.1,0.9-0.2,1.4-0.3c2.4-0.5,4.8-0.9,7.1-1.6
	c0.2,0,0.4-0.1,0.6-0.1c4.5-1.5,8.9-3.2,13.2-5c2.9-1.2,5.7-2.5,8.5-3.8c0.7-0.3,1.5-0.7,2.2-1.1c0.2-0.1,0.4-0.2,0.6-0.3
	c0.2-0.1,0.4-0.2,0.6-0.3c0.4-0.2,0.8-0.4,1.2-0.6c0.7-0.4,1.5-0.8,2.2-1.1c0.2-0.1,0.4-0.2,0.7-0.3c0.8-0.4,1.5-0.8,2.2-1.2
	c0.8-0.5,1.7-0.9,2.5-1.4c0.8-0.5,1.7-1,2.5-1.5c0.7-0.4,1.3-0.8,2-1.2c1.2-0.7,2.4-1.5,3.6-2.2c0.6-0.4,1.1-0.7,1.7-1.1
	c0.6-0.4,1.1-0.7,1.7-1.1c0.3-0.2,0.5-0.4,0.8-0.5c0.8-0.5,1.6-1.1,2.4-1.6c1.6-1.1,3.2-2.2,4.8-3.4
	c57.8-40.5,96.2-112.4,96.2-194.2c0-23.1-3.1-45.3-8.7-66.3c-0.1-0.4-0.2-0.7-0.3-1.1c-2.9-10.6-6.5-20.9-10.7-30.8
	c-0.2-0.7-0.4-1.4-0.6-2.1c-0.1-0.3-0.2-0.5-0.2-0.8c-0.1-0.3-0.2-0.5-0.2-0.8c0-0.1-0.1-0.2-0.1-0.3c0-0.1-0.1-0.3-0.1-0.4
	c0-0.1,0-0.2-0.1-0.2c-0.1-0.4-0.2-0.8-0.4-1.2c-0.4-1.2-0.8-2.4-1.2-3.7c-0.2-0.6-0.4-1.2-0.6-1.7c-0.2-0.7-0.5-1.3-0.8-2
	c-0.3-0.7-0.6-1.4-0.9-2.2c-0.1-0.2-0.2-0.5-0.3-0.8c-0.3-0.8-0.7-1.6-1-2.4c0-0.1-0.1-0.2-0.1-0.2c0-0.1-0.1-0.1-0.1-0.2
	c-0.4-0.8-0.7-1.7-1.1-2.5c-0.4-0.9-0.8-1.9-1.3-2.8c-0.2-0.5-0.5-1-0.7-1.6c0-0.1-0.1-0.2-0.1-0.2c0-0.1,0-0.1-0.1-0.2
	c-0.3-0.7-0.7-1.3-1-2c-0.5-1-1-2-1.5-3.1c-1.2-2.3-2.4-4.6-3.7-6.9c-0.2-0.4-0.4-0.8-0.7-1.2c-0.2-0.4-0.5-0.8-0.7-1.2
	c-0.5-0.8-0.9-1.7-1.4-2.5c-0.3-0.5-0.6-1.1-1-1.7c-1-1.7-2-3.3-3-5c-0.3-0.6-0.7-1.1-1-1.7c-0.7-1.1-1.3-2.2-2-3.3
	c-0.7-1.1-1.4-2.2-2.1-3.3c-1.4-2.2-2.8-4.4-4.3-6.6c-0.7-1.1-1.5-2.2-2.2-3.2c-0.7-1.1-1.5-2.2-2.2-3.2c-0.7-1.1-1.5-2.1-2.2-3.2
	c-0.4-0.5-0.7-1.1-1.1-1.6c-0.4-0.5-0.7-1-1.1-1.6c-0.7-1-1.5-2.1-2.2-3.1c-1.3-1.9-2.7-3.7-4-5.5c-0.6-0.9-1.3-1.7-1.9-2.6
	c-3.2-4.3-6.3-8.4-9.3-12.4c-0.6-0.8-1.2-1.5-1.8-2.3c-0.6-0.8-1.2-1.5-1.8-2.3c-0.5-0.7-1.1-1.3-1.6-2c-0.1-0.2-0.3-0.3-0.4-0.5
	c0,0-0.1-0.1-0.1-0.1c-0.3-0.3-0.6-0.7-0.8-1.1c-0.3-0.3-0.5-0.7-0.8-1c-1-1.3-2.1-2.6-3.1-3.8c-0.5-0.6-1.1-1.3-1.6-2
	c-0.4-0.5-0.7-0.9-1.1-1.4c-0.3-0.3-0.5-0.7-0.8-1c-0.5-0.6-0.9-1.1-1.4-1.7c-0.4-0.5-0.8-0.9-1.1-1.3c-0.7-0.9-1.4-1.7-2.1-2.5
	c-0.5-0.5-0.9-1.1-1.3-1.6c-0.2-0.2-0.4-0.5-0.6-0.8c-0.4-0.5-0.8-1-1.2-1.4c-0.2-0.2-0.4-0.5-0.6-0.7c-0.4-0.4-0.8-0.9-1.1-1.3
	c-0.9-1-1.7-2-2.5-2.9c-0.4-0.5-0.8-1-1.2-1.4c-0.3-0.3-0.5-0.6-0.8-0.9c-0.1-0.1-0.2-0.3-0.4-0.4c-0.7-0.8-1.2-1.3-1.5-1.7
	c0-0.1-0.1-0.1-0.2-0.2c-0.2-0.2-0.3-0.4-0.4-0.4c-9.7-10.8-20.1-20.6-28.8-32.3c-0.5-0.7-1.1-1.5-1.6-2.2c-1.2-1.6-2.3-3.1-3.4-4.7
	c-0.4-0.6-0.9-1.3-1.3-1.9c-0.5-0.8-1-1.5-1.5-2.3c-0.5-0.8-1-1.5-1.5-2.2l-1.8-2.9c0-0.1-0.1-0.2-0.1-0.2c0,0,0-0.1-0.1-0.1
	c0-0.1-0.1-0.1-0.1-0.2c-0.7-1.1-1.3-2.1-2-3.2c-1.3-2.2-2.6-4.5-3.9-6.7c-0.4-0.6-0.7-1.2-1-1.9c-0.4-0.6-0.7-1.3-1-1.9
	c-0.7-1.3-1.3-2.5-2-3.8c0,0,0-0.1-0.1-0.1c-0.6-1.1-1.1-2.3-1.7-3.5c-0.1-0.2-0.2-0.4-0.3-0.5c-0.6-1.2-1.1-2.3-1.6-3.5
	c0,0,0-0.1,0-0.1c-0.6-1.3-1.2-2.5-1.7-3.9c-0.4-0.9-0.8-1.9-1.2-2.8c-0.2-0.5-0.5-1.1-0.7-1.7c-0.4-1-0.8-1.9-1.2-2.9
	c-0.3-0.9-0.7-1.8-1-2.7c-0.1-0.2-0.2-0.4-0.2-0.6c-0.3-0.8-0.6-1.6-0.8-2.3c-0.4-1.1-0.8-2.2-1.2-3.4c-0.3-1.1-0.7-2.1-1-3.2
	c-0.3-0.9-0.6-1.8-0.8-2.7c-0.3-0.9-0.5-1.8-0.8-2.7c-0.3-0.9-0.5-1.8-0.8-2.7c-4.4-16.1-6.8-32.8-7.1-49.8c0-2.5,0-5.1,0-7.6
	c0-1.6,0.1-3.2,0.2-4.8c0.2-5.7,0.7-11.4,1.4-17.1c0.2-1.4,0.4-2.8,0.5-4.1c0-0.2,0.1-0.5,0.1-0.7c0.3-2.3,0.7-4.5,1.1-6.8
	c1.2-6.2,2.7-12.4,4.4-18.4c0-0.1,0-0.2,0.1-0.2c5.3-18.5,13-36.3,22.7-52.9c5.5-9.3,11.6-18.2,18.3-26.6c0,0,0,0,0,0
	c4.8-5.5,9.8-10.6,14.9-15.7c4.5-4.4,9-8.8,13.4-13.3c0.7-0.7,1.3-1.4,2-2.1c0,0,0,0,0,0c0,0,0,0,0,0c0,0,0.1,0,0.1-0.1
	c0,0,0.1,0,0.1,0c0.1,0,0.2-0.1,0.2-0.1c0,0,0,0,0,0c0.4-0.1,0.7-0.3,1-0.4c0,0,0,0,0,0c0,0.1,0,0.1,0,0.2c0,0,0,0,0,0
	c0,0.1-0.1,0.2-0.1,0.3c0,0.1,0,0.1,0,0.2c0,0.1,0,0.2-0.1,0.2c0,0.1,0,0.1,0,0.2c-6.2,21.7-10.9,42.8-10.9,65.6
	c0,30.9,8.5,61.1,20.7,89.3c3.4,7.8,7,15.5,10.9,23.2c1.9,3.8,4,7.6,6,11.3c1.9,3.6,3.5,7.2,5.4,10.8c3.4,5.6,6.2,11.7,9.2,17.5
	c2.3,4.3,4.7,8.6,7.2,12.9c2.4,4.1,5.3,7.9,7.8,12c1.5,2.5,3,5.1,4.5,7.6c5.8,9.7,11.8,19.4,17.8,29c9.3,14.9,18.6,29.8,27.9,44.7
	c9.3,14.9,18.6,29.8,27.9,44.7c8.4,13.4,14,29.1,18.9,44.1c0.7,2.2,1.4,4.4,2.1,6.6c4.4,14.5,7.8,29,10,43.5
	C561.4,489.6,562.1,515.4,559.7,540.6z"/>
<path class="st5" d="M366.8,776c-2.8,1.4-5.7,2.7-8.5,3.8c-4.3,1.8-8.8,3.5-13.2,5c-0.2,0-0.4,0.1-0.6,0.1c0.8-0.2,1.6-0.5,2.4-0.8
	C353.7,781.7,360.3,779.1,366.8,776z"/>
</svg>
