<?xml version="1.0" encoding="utf-8"?>
<!-- Generator: Adobe Illustrator 25.2.1, SVG Export Plug-In . SVG Version: 6.00 Build 0)  -->
<svg version="1.1" id="Layer_1" xmlns="http://www.w3.org/2000/svg" xmlns:xlink="http://www.w3.org/1999/xlink" x="0px" y="0px"
	 viewBox="0 0 562.8 892.8" style="enable-background:new 0 0 562.8 892.8;" xml:space="preserve">
<style type="text/css">
	.st0{display:none;}
	.st1{display:inline;fill:none;}
	.st2{display:inline;fill:#73AA3A;}
	.st3{display:inline;fill:#CCBC2B;}
	.st4{display:inline;fill:#C9CC36;}
	.st5{display:inline;fill:#CC4F29;}
	.st6{display:inline;fill:#66CC33;}
	.st7{display:inline;}
	.st8{fill:#CC259D;}
	.st9{display:inline;fill:#127F4B;stroke:#000099;stroke-miterlimit:10;}
	.st10{display:inline;fill:#CC33CC;}
	.st11{display:inline;fill:#CC3668;}
	.st12{fill:none;}
	.st13{display:inline;fill:#3636CC;}
	.st14{display:inline;fill:#127F4B;}
	.st15{display:inline;fill:#201E84;}
	.st16{display:inline;fill:url(#SVGID_1_);}
	.st17{display:inline;fill:url(#SVGID_2_);}
	.st18{display:inline;fill:url(#SVGID_3_);}
	.st19{display:inline;fill:url(#SVGID_4_);}
	.st20{display:inline;fill:url(#SVGID_5_);}
	.st21{fill:#73AA3A;}
	.st22{fill:url(#SVGID_6_);}
	.st23{fill:#CCBC2B;}
	.st24{fill:url(#SVGID_7_);}
	.st25{fill:url(#SVGID_8_);}
	.st26{fill:url(#SVGID_9_);}
	.st27{fill:url(#SVGID_10_);}
	.st28{fill:#66CC33;}
	.st29{fill:#127F4B;}
</style>
<g id="outline" class="st0">
	<path class="st1" d="M187.8,485.7c0.1,0.1,0.1,0.2,0.2,0.4c-0.3-0.7-0.7-1.3-1-2C187.3,484.6,187.6,485.1,187.8,485.7z"/>
	<path class="st1" d="M187.8,485.7c0.1,0.1,0.1,0.2,0.2,0.4c-0.3-0.7-0.7-1.3-1-2C187.3,484.6,187.6,485.1,187.8,485.7z"/>
	<path class="st2" d="M275.7,55c0,0,0,0.1,0,0.1c0,0,0,0,0,0C275.6,55,275.6,55,275.7,55z"/>
	<path class="st1" d="M187.8,485.7c0.1,0.1,0.1,0.2,0.2,0.4c-0.3-0.7-0.7-1.3-1-2C187.3,484.6,187.6,485.1,187.8,485.7z"/>
	<path class="st3" d="M-42.3,540.6c0.7,5.2,1.7,10.4,2.9,15.5c-3-9.8-4.6-20.2-4.6-31c0-2,0.1-4,0.2-6c0,3.6,0.1,7.2,0.4,10.7
		c0,0,0,0,0,0C-43.2,533.5-42.8,537.1-42.3,540.6z"/>
	<path class="st3" d="M237,693.4c-0.6,0.2-1.3,0.5-2,0.7c0.2,0,0.3-0.1,0.5-0.1c3.6-1.2,7.2-2.6,10.8-4.1c2.4-1,4.7-2,7-3.1
		C247.9,689.2,242.5,691.3,237,693.4z"/>
	<path class="st4" d="M357.4,512.9c0,66.7-31.3,125.2-78.4,158.3c-1.3,0.9-2.6,1.9-3.9,2.8c-0.6,0.5-1.3,0.9-1.9,1.3
		c-0.2,0.1-0.5,0.3-0.7,0.5c-0.5,0.3-0.9,0.6-1.4,0.9c-0.5,0.3-0.9,0.6-1.4,0.9c-1,0.6-2,1.2-3,1.8c-0.5,0.3-1.1,0.7-1.6,1
		c-0.7,0.4-1.4,0.8-2,1.2c-0.7,0.4-1.4,0.8-2.1,1.2c-0.6,0.3-1.2,0.7-1.8,1c-0.2,0.1-0.4,0.2-0.5,0.3c-0.6,0.3-1.2,0.6-1.8,0.9
		c-0.6,0.3-1.3,0.7-1.9,1c-0.6,0.3-1.2,0.6-1.8,0.9c-5.3,2.5-10.7,4.6-16.2,6.7c-0.6,0.2-1.3,0.5-2,0.7c-1.9,0.5-3.9,0.9-5.8,1.3
		c-0.4,0.1-0.7,0.2-1.1,0.2c-0.9,0.2-1.8,0.4-2.7,0.5c-2,0.4-4,0.8-6,1.1c-1.1,0.2-2.2,0.4-3.3,0.6c-0.5,0.1-1,0.2-1.4,0.2
		c-0.7,0.1-1.4,0.2-2.1,0.3c-1.2,0.2-2.5,0.4-3.7,0.5c-11.1,1.5-22.1,2.3-33,2.5c0.1,0,0.1,0,0.1,0c-10.3,0.1-20.4-0.4-30.3-1.5
		c-41.7-4.5-82.6-18.9-116.3-43.8C-2,633-26.5,600.9-37.4,563.6c-0.8-2.7-1.5-5.5-2.2-8.2c-9.9-42.3-1.7-86.8,20.6-124.3
		c2.5-4.2,5.2-8.3,8.1-12.4c-1.1,2-2.1,3.9-3,6c-4.9,10.2-8.6,21.1-10.9,32.2v0c0,0,0,0,0,0.1v0c-0.7,3.3-1.3,6.6-1.7,10
		c-1,7.6-1.5,15.2-1.2,22.9c0.3,9.5,1.5,19,3.7,28.3c4.5,19.3,12.7,37.3,23.9,53.2c16.1,22.9,38.3,41.5,64.3,53.5
		c42.4,19.6,95.7,25.6,138.7,4.4c19.7-9.7,35.3-24,47.7-41.1c4.3-5.9,8.1-12.1,11.7-18.6c5.7-10.5,10.5-21.3,14-32.5
		c4.1-13,6.5-26.5,6.8-40.4c0-1.5,0-2.9,0-4.4c-0.2-24.1-6.1-48.3-17.6-69.5c-19.2-35.4-54.6-60.4-92.9-72.3c-3.3-1-6.6-1.9-9.9-2.8
		c-12.1-12-20-28.7-26.6-43.8c-8.9-20.5-13.4-43-13.4-65.2c0-4.8,0.2-9.5,0.6-14.1c3.4-39.3,21.4-76.1,48.2-105.2
		c27.5-29.9,63.2-51.3,101.8-64.1c0,0,0,0,0,0c0.4-0.1,0.9-0.3,1.3-0.4c-0.5,0.6-1.1,1.1-1.6,1.7c-3.6,3.7-7.3,7.2-11,10.9
		c-4.2,4.1-8.3,8.4-12.2,12.8c0,0,0,0,0,0c-5.5,6.9-10.5,14.1-14.9,21.7c-7.9,13.5-14.2,28-18.5,43.1c0,0.1,0,0.1-0.1,0.2
		c-1.4,5-2.6,10-3.6,15c0,0,0,0,0,0c-0.3,1.8-0.6,3.7-0.9,5.5c0,0.2,0,0.4-0.1,0.6c-0.2,1.1-0.3,2.2-0.5,3.4
		c-0.6,4.6-1,9.3-1.2,13.9c-0.1,1.3-0.1,2.6-0.1,3.9c0,2-0.1,4.1,0,6.2c0.2,13.8,2.1,27.4,5.8,40.6c0.2,0.7,0.4,1.5,0.6,2.2
		s0.4,1.5,0.6,2.2c0.2,0.7,0.4,1.5,0.7,2.2c0.3,0.9,0.6,1.7,0.9,2.6c0.3,0.9,0.6,1.8,1,2.7c0.2,0.6,0.5,1.3,0.7,1.9
		c0.1,0.2,0.1,0.3,0.2,0.5c0.3,0.7,0.5,1.5,0.8,2.2c0.3,0.8,0.6,1.6,0.9,2.4c0.2,0.5,0.4,0.9,0.6,1.4c0.3,0.8,0.6,1.5,1,2.3
		c0.5,1.1,0.9,2.1,1.4,3.1c0,0,0,0.1,0,0.1c0.4,1,0.9,1.9,1.4,2.9c0.1,0.1,0.1,0.3,0.2,0.5c0.5,0.9,0.9,1.9,1.4,2.8
		c0,0,0,0.1,0.1,0.1c0.5,1,1.1,2.1,1.6,3.1c0.3,0.5,0.5,1,0.8,1.5c0.3,0.5,0.6,1,0.9,1.5c1,1.8,2.1,3.6,3.2,5.5
		c0.5,0.9,1.1,1.8,1.6,2.6c0,0,0.1,0.1,0.1,0.1c0,0,0,0.1,0.1,0.1c0,0.1,0.1,0.1,0.1,0.2l1.5,2.3c0.4,0.6,0.8,1.2,1.2,1.8
		c0.4,0.6,0.8,1.2,1.2,1.9c0.4,0.5,0.7,1,1,1.5c0.9,1.3,1.8,2.6,2.8,3.9c0.4,0.6,0.9,1.2,1.3,1.8c7.1,9.5,15.6,17.5,23.5,26.3
		c0,0,0.1,0.1,0.3,0.3c0,0,0.1,0.1,0.1,0.1c0.3,0.3,0.7,0.8,1.2,1.4c0.1,0.1,0.2,0.2,0.3,0.3c0.2,0.2,0.4,0.5,0.6,0.7
		c0.3,0.4,0.6,0.8,1,1.2c0.6,0.7,1.3,1.5,2,2.3c0.3,0.3,0.6,0.7,0.9,1.1c0.1,0.2,0.3,0.4,0.5,0.6c0.3,0.4,0.6,0.8,1,1.2
		c0.2,0.2,0.3,0.4,0.5,0.6c0.3,0.4,0.7,0.8,1.1,1.3c0.5,0.7,1.1,1.3,1.7,2c0.3,0.4,0.6,0.7,0.9,1.1c0.4,0.5,0.8,0.9,1.1,1.4
		c0.2,0.3,0.5,0.6,0.7,0.8c0.3,0.4,0.6,0.7,0.9,1.1c0.4,0.5,0.9,1.1,1.3,1.6c0.8,1,1.6,2,2.5,3.1c0.2,0.3,0.5,0.6,0.7,0.8
		s0.5,0.6,0.7,0.9c0,0,0,0.1,0.1,0.1c0.1,0.1,0.2,0.3,0.3,0.4c0.4,0.5,0.9,1.1,1.3,1.6c0.5,0.6,1,1.2,1.5,1.9c0.5,0.6,1,1.3,1.5,1.9
		c2.5,3.2,5,6.6,7.6,10.1c0.5,0.7,1,1.4,1.5,2.1c1.1,1.5,2.2,3,3.3,4.5c0.6,0.9,1.2,1.7,1.8,2.5c0.3,0.4,0.6,0.9,0.9,1.3
		c0.3,0.4,0.6,0.9,0.9,1.3c0.6,0.9,1.2,1.7,1.8,2.6c0.6,0.9,1.2,1.8,1.8,2.6c0.6,0.9,1.2,1.8,1.8,2.6c1.2,1.8,2.3,3.6,3.5,5.4
		c0.6,0.9,1.1,1.8,1.7,2.7c0.6,0.9,1.1,1.8,1.7,2.7c0.3,0.5,0.6,0.9,0.8,1.4c0.8,1.4,1.6,2.7,2.4,4.1c0.3,0.5,0.5,0.9,0.8,1.4
		c0.4,0.7,0.8,1.4,1.2,2c0.2,0.3,0.4,0.7,0.6,1s0.4,0.7,0.6,1c1,1.9,2,3.8,3,5.6c0.4,0.8,0.9,1.7,1.2,2.5c0.3,0.6,0.5,1.1,0.8,1.7
		c0,0,0,0.1,0.1,0.1c0,0.1,0.1,0.1,0.1,0.2c0.2,0.4,0.4,0.8,0.6,1.3c0.4,0.8,0.7,1.5,1.1,2.3c0.3,0.7,0.6,1.4,0.9,2.1
		c0,0.1,0,0.1,0.1,0.2c0,0.1,0.1,0.1,0.1,0.2c0.3,0.7,0.6,1.3,0.9,2c0.1,0.2,0.2,0.4,0.2,0.6c0.2,0.6,0.5,1.2,0.7,1.8
		c0.2,0.5,0.4,1.1,0.6,1.6c0.2,0.5,0.4,1,0.5,1.4c0.4,1,0.7,2,1,3c0.1,0.3,0.2,0.6,0.3,1c0,0.1,0,0.1,0.1,0.2c0,0.1,0.1,0.2,0.1,0.3
		c0,0.1,0,0.2,0.1,0.3c0.1,0.2,0.1,0.5,0.2,0.7c0.1,0.2,0.1,0.5,0.2,0.7c0.2,0.6,0.3,1.2,0.5,1.7c3.4,8.1,6.4,16.5,8.7,25.1
		c0.1,0.3,0.2,0.6,0.2,0.9C354.9,476,357.4,494.1,357.4,512.9z"/>
	<path class="st5" d="M283.1,492.2c0,1.5,0,2.9,0,4.4c-0.3,13.9-2.7,27.4-6.8,40.4c-3.5,11.2-8.3,22-14,32.5
		c-3.5,6.5-7.4,12.7-11.7,18.6c-12.4,17.2-28,31.4-47.7,41.1c-43,21.2-96.3,15.2-138.7-4.4c-25.9-12-48.1-30.6-64.3-53.5
		c-11.2-15.9-19.5-33.9-23.9-53.2c-2.2-9.3-3.4-18.8-3.7-28.3c-0.2-7.6,0.2-15.3,1.2-22.9c0.5-3.3,1-6.7,1.7-10v0c0,0,0,0,0-0.1v0
		c2.3-11.1,6-21.9,10.9-32.2c1-2,2-4,3-6c5.2-9.7,11.7-18.7,19-26.9c0,0,0,0,0,0c22.5-25.2,53.8-42.4,87.6-47.4
		c20.9-3.1,42.4-2.3,63,2.3c1.3,0.3,2.6,0.6,3.8,0.9c3.3,0.8,6.6,1.7,9.9,2.8c38.3,11.9,73.7,36.9,92.9,72.3
		C277,443.9,282.9,468.1,283.1,492.2z"/>
	<path class="st1" d="M338.7,436.1c-0.1-0.3-0.2-0.7-0.3-1.1"/>
	<path class="st6" d="M412.4,494.9c-4,43-19.1,83.7-43,118.1c-12.2,14.7-26.7,28-43.1,39.5c-9.9,7.2-20.3,13.6-31.2,19.2
		c-11.3,5.8-23,10.8-35,15c-10,3.4-20.1,6.9-30.5,9c-6.1,1.2-12.3,2.3-18.6,3.1c-11.2,1.5-22.3,2.3-33.2,2.5c-0.6,0-1.2,0-1.8,0H176
		c0,0-0.1,0-0.1,0c10.8-0.1,21.9-0.9,33-2.5c1.2-0.2,2.5-0.3,3.7-0.5c0.7-0.1,1.4-0.2,2.1-0.3c0.5-0.1,0.9-0.1,1.4-0.2
		c1.1-0.2,2.2-0.4,3.3-0.6c2-0.3,4-0.7,6-1.1c0.9-0.2,1.8-0.3,2.7-0.5c0.4-0.1,0.7-0.2,1.1-0.2c2-0.4,3.9-0.8,5.8-1.3
		c0.2,0,0.3-0.1,0.5-0.1c3.6-1.2,7.2-2.6,10.8-4.1c2.4-1,4.7-2,7-3.1c0.6-0.3,1.2-0.6,1.8-0.9c0.2-0.1,0.3-0.2,0.5-0.2
		c0.5-0.2,1-0.5,1.5-0.7c0.6-0.3,1.2-0.6,1.8-0.9c0.2-0.1,0.4-0.2,0.5-0.3c0.6-0.3,1.2-0.7,1.8-1c0.7-0.4,1.4-0.8,2.1-1.2
		c0.7-0.4,1.4-0.8,2-1.2c0.5-0.3,1.1-0.6,1.6-1c1-0.6,2-1.2,3-1.8c0.5-0.3,0.9-0.6,1.4-0.9c0.5-0.3,0.9-0.6,1.4-0.9
		c0.2-0.2,0.5-0.3,0.7-0.5c0.6-0.4,1.3-0.9,1.9-1.3c1.3-0.9,2.6-1.8,3.9-2.8c47.1-33,78.4-91.6,78.4-158.3c0-18.8-2.5-36.9-7.1-54
		c-0.1-0.3-0.1-0.6-0.2-0.9c-2.4-8.7-5.3-17-8.7-25.1c-0.1-0.6-0.3-1.2-0.5-1.7c-0.1-0.2-0.1-0.5-0.2-0.7c-0.1-0.2-0.1-0.5-0.2-0.7
		c0-0.1,0-0.2-0.1-0.3c0-0.1-0.1-0.2-0.1-0.3c0-0.1,0-0.1-0.1-0.2c-0.1-0.3-0.2-0.6-0.3-1c-0.3-1-0.6-2-1-3
		c-0.2-0.5-0.3-0.9-0.5-1.4c-0.2-0.5-0.4-1.1-0.6-1.6c-0.2-0.6-0.5-1.2-0.7-1.8c-0.1-0.2-0.2-0.4-0.2-0.6c-0.3-0.7-0.5-1.3-0.9-2
		c0-0.1,0-0.1-0.1-0.2c0-0.1,0-0.1-0.1-0.2c-0.3-0.7-0.6-1.4-0.9-2.1c-0.3-0.8-0.7-1.5-1.1-2.3c-0.2-0.4-0.4-0.8-0.6-1.3
		c0-0.1-0.1-0.1-0.1-0.2c0,0,0-0.1-0.1-0.1c-0.2-0.5-0.5-1.1-0.8-1.7c-0.4-0.8-0.8-1.7-1.2-2.5c-1-1.9-2-3.8-3-5.6
		c-0.2-0.3-0.4-0.7-0.6-1s-0.4-0.7-0.6-1c-0.4-0.7-0.8-1.4-1.2-2c-0.2-0.5-0.5-0.9-0.8-1.4c-0.8-1.4-1.6-2.7-2.4-4.1
		c-0.3-0.5-0.5-0.9-0.8-1.4c-0.5-0.9-1.1-1.8-1.7-2.7c-0.6-0.9-1.1-1.8-1.7-2.7c-1.1-1.8-2.3-3.6-3.5-5.4c-0.6-0.9-1.2-1.8-1.8-2.6
		c-0.6-0.9-1.2-1.8-1.8-2.6c-0.6-0.9-1.2-1.8-1.8-2.6c-0.3-0.4-0.6-0.9-0.9-1.3c-0.3-0.4-0.6-0.9-0.9-1.3c-0.6-0.9-1.2-1.7-1.8-2.5
		c-1.1-1.5-2.2-3-3.3-4.5c-0.5-0.7-1-1.4-1.5-2.1c-2.6-3.5-5.1-6.9-7.6-10.1c-0.5-0.6-1-1.3-1.5-1.9c-0.5-0.6-1-1.2-1.5-1.9
		c-0.4-0.5-0.9-1.1-1.3-1.6c-0.1-0.1-0.2-0.3-0.3-0.4c0,0,0-0.1-0.1-0.1c-0.2-0.3-0.5-0.6-0.7-0.9s-0.5-0.6-0.7-0.8
		c-0.9-1.1-1.7-2.1-2.5-3.1c-0.4-0.5-0.9-1.1-1.3-1.6c-0.3-0.4-0.6-0.7-0.9-1.1c-0.2-0.3-0.5-0.6-0.7-0.8c-0.4-0.5-0.8-0.9-1.1-1.4
		c-0.3-0.4-0.6-0.7-0.9-1.1c-0.6-0.7-1.1-1.4-1.7-2c-0.4-0.4-0.7-0.9-1.1-1.3c-0.2-0.2-0.4-0.4-0.5-0.6c-0.3-0.4-0.7-0.8-1-1.2
		c-0.2-0.2-0.3-0.4-0.5-0.6c-0.3-0.4-0.6-0.7-0.9-1.1c-0.7-0.9-1.4-1.6-2-2.3c-0.4-0.4-0.7-0.8-1-1.2c-0.2-0.3-0.5-0.5-0.6-0.7
		c-0.1-0.1-0.2-0.2-0.3-0.3c-0.5-0.6-1-1.1-1.2-1.4c0,0-0.1-0.1-0.1-0.1c-0.2-0.2-0.2-0.3-0.3-0.3c-7.9-8.8-16.4-16.8-23.5-26.3
		c-0.4-0.6-0.9-1.2-1.3-1.8c-1-1.3-1.9-2.6-2.8-3.9c-0.4-0.5-0.7-1-1-1.5c-0.4-0.6-0.9-1.2-1.2-1.9c-0.4-0.6-0.8-1.2-1.2-1.8
		l-1.5-2.3c0-0.1-0.1-0.1-0.1-0.2c0,0,0-0.1-0.1-0.1c0,0-0.1-0.1-0.1-0.1c-0.5-0.9-1.1-1.7-1.6-2.6c-1.1-1.8-2.1-3.6-3.2-5.5
		c-0.3-0.5-0.6-1-0.9-1.5c-0.3-0.5-0.5-1-0.8-1.5c-0.5-1-1.1-2.1-1.6-3.1c0,0,0-0.1-0.1-0.1c-0.5-0.9-0.9-1.9-1.4-2.8
		c-0.1-0.1-0.1-0.3-0.2-0.5c-0.5-1-0.9-1.9-1.4-2.9c0,0,0-0.1,0-0.1c-0.5-1-1-2.1-1.4-3.1c-0.3-0.8-0.7-1.5-1-2.3
		c-0.2-0.5-0.4-0.9-0.6-1.4c-0.3-0.8-0.6-1.6-0.9-2.4c-0.3-0.7-0.6-1.5-0.8-2.2c-0.1-0.2-0.1-0.3-0.2-0.5c-0.2-0.6-0.5-1.3-0.7-1.9
		c-0.3-0.9-0.6-1.8-1-2.7c-0.3-0.9-0.6-1.7-0.9-2.6c-0.2-0.7-0.5-1.5-0.7-2.2c-0.2-0.7-0.4-1.5-0.6-2.2c-0.2-0.7-0.4-1.5-0.6-2.2
		c-3.6-13.2-5.6-26.7-5.8-40.6c0-2.1,0-4.1,0-6.2c0-1.3,0.1-2.6,0.1-3.9c0.2-4.6,0.6-9.3,1.2-13.9c0.1-1.1,0.3-2.2,0.5-3.4
		c0-0.2,0.1-0.4,0.1-0.6c0.3-1.9,0.6-3.7,0.9-5.5c1-5,2.2-10.1,3.6-15c0-0.1,0-0.1,0.1-0.2c4.3-15.1,10.6-29.6,18.5-43.1
		c4.4-7.6,9.4-14.8,14.9-21.7c0,0,0,0,0,0c3.9-4.5,8-8.7,12.2-12.8c3.6-3.6,7.3-7.2,11-10.9c0.5-0.6,1.1-1.1,1.6-1.7c0,0,0,0,0,0
		c0,0,0,0,0,0c0,0,0.1,0,0.1,0c0,0,0,0,0.1,0c0.1,0,0.1,0,0.2-0.1c0,0,0,0,0,0c0.3-0.1,0.6-0.2,0.8-0.4c0,0,0,0,0,0
		c0,0.1,0,0.1,0,0.2c0,0,0,0,0,0c0,0.1,0,0.1-0.1,0.2c0,0,0,0.1,0,0.1c0,0.1,0,0.1,0,0.2c0,0,0,0.1,0,0.1c-5,17.7-8.9,34.9-8.9,53.5
		c0,25.2,6.9,49.8,16.9,72.8c2.8,6.4,5.7,12.7,8.9,18.9c1.6,3.1,3.3,6.2,4.9,9.2c1.6,2.9,2.9,5.9,4.4,8.8c2.8,4.6,5,9.6,7.5,14.3
		c1.9,3.5,3.9,7,5.9,10.5c2,3.4,4.3,6.5,6.4,9.8c1.2,2,2.4,4.1,3.6,6.2c4.7,7.9,9.6,15.8,14.5,23.6c7.6,12.1,15.2,24.3,22.8,36.4
		s15.2,24.3,22.8,36.4c6.8,11,11.4,23.7,15.4,35.9c0.6,1.8,1.1,3.6,1.7,5.4c3.6,11.8,6.3,23.6,8.2,35.4
		C413.8,453.3,414.4,474.4,412.4,494.9z"/>
	<path class="st6" d="M253.2,686.7c-2.3,1.1-4.6,2.2-7,3.1c-3.5,1.5-7.1,2.8-10.8,4.1c-0.2,0-0.3,0.1-0.5,0.1c0.7-0.2,1.3-0.4,2-0.7
		C242.5,691.3,247.9,689.2,253.2,686.7z"/>
	<g class="st7">
		<g>
			<path class="st8" d="M176.1,488.4c2.3,0.3,4.6,0.5,6.9,0.8c1.1,0.1,2.3,0.2,3.4,0.4c1.2,0.1,2.3,0.3,3.2-0.6c0.7-0.8,0.9-2,1.1-3
				c0.3-1.1,0.6-2.3,0.6-3.4c0.1-1.3-0.9-1.9-2-2.3c-1-0.3-2.5-0.8-3.4,0.1c-0.9,0.9-0.7,2.4-0.6,3.5c0,1.2,0.1,3,1.6,3.2
				c0.8,0.1,1.6-0.2,1.9-1c0.2-0.7-0.2-1.7-1-1.8c0,0,0.1,0,0.1,0.1c0.2,0.2,0.4,0.4,0.5,0.5c0,0.1,0,0.1,0,0.2c0-0.2,0-0.3,0-0.5
				c0-0.3,0-0.6,0-0.9s0-0.6,0-0.9c0-0.3,0-0.5,0-0.6c-0.1,0.2-0.3,0.4-0.4,0.7c0,0,0.1-0.1,0.1-0.1c-0.2,0.1-0.4,0.3-0.7,0.4
				c-0.1,0-0.2-0.1,0,0c0.2,0.1,0.4,0.1,0.6,0.1c0.2,0,0.3,0.1,0.5,0.1c0.4,0.1,0.2,0.1,0.2,0c-0.1-0.2-0.3-0.4-0.4-0.7
				c0,0,0-0.1,0,0c-0.1,0.1-0.1,0.4-0.1,0.5c-0.1,0.3-0.1,0.7-0.2,1c-0.1,0.7-0.3,1.4-0.5,2.1c-0.1,0.2-0.3,0.7-0.3,1
				c-0.1,0.2,0,0.1,0.2-0.1c0.1,0,0.2-0.1,0.2-0.2c0,0-0.3,0-0.3,0c-0.8-0.1-1.5-0.2-2.3-0.3c-3-0.3-6-0.7-9-1
				c-0.8-0.1-1.5,0.8-1.5,1.5C174.6,487.8,175.3,488.4,176.1,488.4L176.1,488.4z"/>
		</g>
	</g>
</g>
<g id="music" class="st0">
	<path class="st9" d="M265,396.7c-0.8,4.2-2.2,8.1-4.4,11.6c-0.9-3.4-2.2-7.1-3.4-10.3c-1.1-3.7-2.4-7-2.8-8.3
		c-2.6-7.7-6.4-15.1-11-21.8c-7.2-10.5-16.6-19.5-27.5-26.1c-3-1.8-6.2-3.5-9.5-4.9c0.5,35.7,1,71.4,1.5,107.1
		c0.4,29,3.9,62.7-12.9,88.1c-2.8,4.3-6.2,8.1-9.9,11.6c-10,9.1-22.8,15.2-36.1,17.8c-13.5,2.6-27.9,1.8-40.6-3.7
		C95.8,552.4,85,542.2,80,529.3c-5-13.1-3.7-28.2,2.3-40.9c4.6-9.7,11.8-18.1,20.4-24.5c6.1-4.6,12.9-8.2,20.1-10.8
		c8.7-3.1,17.9-4.7,27.1-4.8h0.9c2.5,0,22.5,1.5,27.1,4.2V250.4c0-5.3-0.1-10.6-0.2-16c0-1.4,0-2.8-0.1-4.2c1.2,2.3,2.4,4.6,3.6,6.9
		c16.6,31.9,38.9,58.5,60.5,86.9C257.9,344.9,270.4,369.7,265,396.7z"/>
</g>
<g id="outline-final" class="st0">
	<path class="st1" d="M188,486c-0.3-0.7-0.7-1.3-1-2c0.3,0.5,0.5,1.1,0.8,1.6C187.9,485.8,188,485.9,188,486z"/>
	<path class="st1" d="M188,486c-0.3-0.7-0.7-1.3-1-2c0.3,0.5,0.5,1.1,0.8,1.6C187.9,485.8,188,485.9,188,486z"/>
	<path class="st2" d="M275.7,55c0,0,0,0.1,0,0.1c0,0,0,0,0,0C275.6,55,275.6,55,275.7,55z"/>
	<path class="st1" d="M188,486c-0.3-0.7-0.7-1.3-1-2c0.3,0.5,0.5,1.1,0.8,1.6C187.9,485.8,188,485.9,188,486z"/>
	<path class="st3" d="M-42.3,540.6c0.7,5.2,1.7,10.4,2.9,15.5c-3-9.8-4.6-20.2-4.6-31c0-2,0.1-4,0.2-6c0,3.6,0.1,7.2,0.4,10.7
		c0,0,0,0,0,0C-43.2,533.5-42.8,537.1-42.3,540.6z"/>
	<path class="st3" d="M237,693.4c-0.6,0.2-1.3,0.5-2,0.7c0.2,0,0.3-0.1,0.5-0.1c3.6-1.2,7.2-2.6,10.8-4.1c2.4-1,4.7-2,7-3.1
		C247.9,689.2,242.5,691.3,237,693.4z"/>
	<path class="st10" d="M357.4,512.9c0,66.7-31.3,125.2-78.4,158.3c-1.3,0.9-2.6,1.9-3.9,2.8c-0.6,0.4-1.3,0.9-1.9,1.3
		c-0.2,0.1-0.5,0.3-0.7,0.4c-0.5,0.3-0.9,0.6-1.4,0.9c-0.5,0.3-0.9,0.6-1.4,0.9c-1,0.6-2,1.2-3,1.8c-0.5,0.3-1.1,0.7-1.6,1
		c-0.7,0.4-1.4,0.8-2,1.2c-0.7,0.4-1.4,0.8-2.1,1.2c-0.6,0.3-1.2,0.7-1.8,1c-0.2,0.1-0.4,0.2-0.5,0.3c-0.6,0.3-1.2,0.6-1.8,0.9
		c-0.3,0.2-0.6,0.3-1,0.5c-0.3,0.2-0.6,0.3-1,0.5c-0.6,0.3-1.2,0.6-1.8,0.9c-5.3,2.5-10.7,4.6-16.2,6.7c-0.6,0.2-1.3,0.5-2,0.7
		c-1.9,0.5-3.9,0.9-5.8,1.3c-0.4,0.1-0.7,0.2-1.1,0.2c-0.9,0.2-1.8,0.4-2.7,0.5c-2,0.4-4,0.8-6,1.1c-1.1,0.2-2.2,0.4-3.3,0.6
		c-0.5,0.1-1,0.2-1.4,0.2c-0.7,0.1-1.4,0.2-2.1,0.3c-1.2,0.2-2.5,0.4-3.7,0.5c-11.1,1.5-22.1,2.3-33,2.5c0.1,0,0.1,0,0.2,0
		c-10.3,0.1-20.4-0.4-30.3-1.5c-41.7-4.5-82.6-18.9-116.3-43.8C-2,633-26.5,600.9-37.4,563.7c-0.8-2.7-1.5-5.5-2.2-8.2
		c-9.9-42.3-1.7-86.8,20.6-124.3c2.5-4.2,5.2-8.3,8.1-12.4c-1.1,2-2.1,3.9-3,6c-4.9,10.2-8.6,21.1-10.9,32.2v0c0,0,0,0,0,0.1v0
		c-0.7,3.3-1.3,6.6-1.7,10c-1,7.6-1.5,15.2-1.2,22.9c0.3,9.5,1.5,19,3.7,28.3c4.5,19.3,12.7,37.3,23.9,53.2
		c16.1,22.9,38.3,41.5,64.3,53.5c42.4,19.6,95.7,25.6,138.7,4.4c19.7-9.7,35.3-24,47.7-41.1c4.3-5.9,8.1-12.1,11.7-18.6
		c5.7-10.5,10.5-21.3,14-32.5c4.1-13,6.5-26.5,6.8-40.4c0-1.5,0-2.9,0-4.4c-0.2-24.1-6.1-48.3-17.6-69.5
		c-13.2-24.4-34.2-44-58.6-57.6c-0.1-9.4-0.3-18.8-0.4-28.2c3.3,1.4,6.4,3.1,9.5,4.9c10.9,6.6,20.3,15.6,27.5,26.1
		c4.6,6.7,8.3,14.1,11,21.8c0.4,1.3,1.7,4.6,2.8,8.3c1.2,3.1,2.5,6.9,3.4,10.3c2.1-3.5,3.5-7.4,4.4-11.6c5.4-27-7.2-51.9-23.1-72.8
		c-21.6-28.4-44-54.9-60.5-86.9c-1.2-2.3-2.4-4.6-3.6-6.9c0,1.4,0,2.8,0,4.2c0.1,5.3,0.2,10.6,0.2,16v101.8
		c-1.8-0.6-3.6-1.2-5.5-1.8c-3.3-1-6.6-1.9-9.9-2.8c-12.1-12-20-28.7-26.6-43.8c-8.9-20.5-13.4-43-13.4-65.2c0-4.8,0.2-9.5,0.6-14.1
		c3.4-39.3,21.4-76.1,48.2-105.2c27.5-29.9,63.2-51.3,101.8-64.1c0,0,0,0,0,0c0.4-0.1,0.9-0.3,1.3-0.4c-0.5,0.6-1.1,1.1-1.6,1.7
		c-3.6,3.7-7.3,7.2-11,10.9c-4.2,4.1-8.3,8.4-12.2,12.8c0,0,0,0,0,0c-5.5,6.9-10.5,14.1-14.9,21.7c-7.9,13.5-14.2,28-18.5,43.1
		c0,0.1,0,0.1-0.1,0.2c-1.4,5-2.6,10-3.6,15c0,0,0,0,0,0c-0.3,1.8-0.6,3.7-0.9,5.5c0,0.2,0,0.4-0.1,0.5c-0.2,1.1-0.3,2.2-0.5,3.4
		c-0.6,4.6-1,9.3-1.2,13.9c-0.1,1.3-0.1,2.6-0.1,3.9c0,2-0.1,4.1,0,6.2c0.2,13.8,2.1,27.4,5.8,40.6c0.2,0.7,0.4,1.5,0.6,2.2
		c0.2,0.7,0.4,1.5,0.6,2.2c0.2,0.7,0.4,1.4,0.7,2.2c0.3,0.9,0.6,1.7,0.8,2.6c0.3,0.9,0.6,1.8,1,2.8c0.2,0.6,0.5,1.3,0.7,1.9
		c0.1,0.2,0.1,0.3,0.2,0.5c0.3,0.7,0.5,1.5,0.8,2.2c0.3,0.8,0.6,1.6,0.9,2.4c0.2,0.5,0.4,0.9,0.6,1.4c0.3,0.8,0.6,1.5,1,2.3
		c0.5,1.1,0.9,2.1,1.4,3.1c0,0,0,0.1,0,0.1c0.4,1,0.9,1.9,1.3,2.9c0.1,0.1,0.1,0.3,0.2,0.5c0.4,0.9,0.9,1.9,1.4,2.8
		c0,0,0,0.1,0.1,0.1c0.5,1,1.1,2.1,1.6,3.1c0.3,0.5,0.5,1,0.8,1.5c0.3,0.5,0.6,1,0.9,1.5c1,1.8,2.1,3.7,3.1,5.5
		c0.5,0.9,1.1,1.8,1.6,2.6c0,0,0.1,0.1,0.1,0.1c0,0,0,0.1,0.1,0.1c0,0.1,0.1,0.1,0.1,0.2l1.5,2.3c0.4,0.6,0.8,1.2,1.2,1.8
		c0.4,0.6,0.8,1.2,1.2,1.9c0.4,0.5,0.7,1,1,1.5c0.9,1.3,1.8,2.6,2.8,3.9c0.4,0.6,0.9,1.2,1.3,1.8c7.1,9.5,15.6,17.5,23.5,26.3
		c0,0,0.1,0.1,0.3,0.3c0,0,0.1,0.1,0.1,0.1c0.3,0.3,0.7,0.8,1.2,1.4c0.1,0.1,0.2,0.2,0.3,0.3c0.2,0.2,0.4,0.5,0.6,0.7
		c0.3,0.4,0.6,0.8,1,1.2c0.6,0.7,1.3,1.5,2,2.3c0.3,0.3,0.6,0.7,0.9,1.1c0.2,0.2,0.3,0.4,0.5,0.6c0.3,0.4,0.6,0.8,1,1.2
		c0.2,0.2,0.3,0.4,0.5,0.6c0.3,0.4,0.7,0.8,1.1,1.3c0.5,0.6,1.1,1.3,1.7,2c0.3,0.4,0.6,0.7,0.9,1.1c0.4,0.5,0.8,0.9,1.1,1.4
		c0.2,0.3,0.5,0.6,0.7,0.8c0.3,0.4,0.6,0.7,0.9,1.1c0.4,0.5,0.9,1.1,1.3,1.6c0.8,1,1.6,2,2.5,3.1c0.2,0.3,0.5,0.6,0.7,0.8
		c0.2,0.3,0.5,0.6,0.7,0.9c0,0,0,0.1,0.1,0.1c0.1,0.1,0.2,0.3,0.3,0.4c0.4,0.5,0.8,1.1,1.3,1.6c0.5,0.6,1,1.2,1.5,1.9
		c0.5,0.6,1,1.2,1.5,1.9c2.5,3.2,5,6.6,7.6,10.1c0.5,0.7,1,1.4,1.5,2.1c1.1,1.5,2.2,3,3.3,4.5c0.6,0.9,1.2,1.7,1.8,2.5
		c0.3,0.4,0.6,0.9,0.9,1.3c0.3,0.4,0.6,0.9,0.9,1.3c0.6,0.9,1.2,1.7,1.8,2.6c0.6,0.9,1.2,1.8,1.8,2.6c0.6,0.9,1.2,1.8,1.8,2.6
		c1.2,1.8,2.3,3.6,3.5,5.4c0.6,0.9,1.1,1.8,1.7,2.7c0.6,0.9,1.1,1.8,1.7,2.7c0.3,0.5,0.6,0.9,0.8,1.4c0.8,1.3,1.6,2.7,2.4,4.1
		c0.3,0.5,0.5,0.9,0.8,1.4c0.4,0.7,0.8,1.4,1.2,2c0.2,0.3,0.4,0.7,0.6,1c0.2,0.3,0.4,0.7,0.6,1c1,1.9,2,3.8,3,5.6
		c0.4,0.8,0.8,1.7,1.2,2.5c0.3,0.6,0.5,1.1,0.8,1.7c0,0,0,0.1,0.1,0.1c0,0.1,0.1,0.1,0.1,0.2c0.2,0.4,0.4,0.8,0.6,1.3
		c0.4,0.8,0.7,1.5,1.1,2.3c0.3,0.7,0.6,1.4,0.9,2.1c0,0.1,0,0.1,0.1,0.2c0,0.1,0.1,0.1,0.1,0.2c0.3,0.7,0.6,1.3,0.9,2
		c0.1,0.2,0.2,0.4,0.2,0.6c0.2,0.6,0.5,1.2,0.7,1.8c0.2,0.5,0.4,1.1,0.6,1.6c0.2,0.5,0.4,1,0.5,1.4c0.4,1,0.7,2,1,3
		c0.1,0.3,0.2,0.6,0.3,1c0,0.1,0,0.1,0.1,0.2c0,0.1,0.1,0.2,0.1,0.3c0,0.1,0,0.2,0.1,0.3c0.1,0.2,0.1,0.5,0.2,0.7
		c0.1,0.2,0.1,0.5,0.2,0.7c0.2,0.6,0.3,1.2,0.5,1.7c3.4,8.1,6.4,16.5,8.7,25.1c0.1,0.3,0.2,0.6,0.2,0.9
		C354.9,476,357.4,494.1,357.4,512.9z"/>
	<path class="st5" d="M188,486c-0.3-0.7-0.7-1.3-1-2c0.3,0.5,0.5,1.1,0.8,1.6C187.9,485.8,188,485.9,188,486z"/>
	<path class="st5" d="M283.1,492.2c0,1.4,0,2.9,0,4.4c-0.3,13.9-2.7,27.4-6.8,40.4c-3.5,11.2-8.3,22-14,32.5
		c-3.5,6.5-7.4,12.7-11.7,18.6c-12.4,17.2-28,31.4-47.7,41.1c-43,21.2-96.3,15.2-138.7-4.4c-25.9-12-48.1-30.6-64.3-53.5
		c-11.2-15.9-19.4-33.9-23.9-53.2c-2.2-9.3-3.4-18.8-3.7-28.3c-0.2-7.7,0.2-15.3,1.2-22.9c0.5-3.3,1-6.7,1.7-10v0c0,0,0,0,0-0.1v0
		c2.3-11.1,6-21.9,10.9-32.2c1-2,2-4,3-6c5.2-9.7,11.7-18.7,19-26.9c0,0,0,0,0,0c22.5-25.2,53.8-42.4,87.6-47.4
		c20.9-3,42.4-2.3,63,2.3c1.3,0.3,2.6,0.6,3.8,0.9c3.3,0.8,6.6,1.7,9.9,2.8c1.8,0.6,3.6,1.2,5.5,1.8v100.2c-4.5-2.7-24.5-4.1-27-4.2
		h-1c-9.2,0-18.5,1.6-27.1,4.8c-7.1,2.6-14,6.2-20.1,10.8c-8.6,6.5-15.8,14.8-20.4,24.5c-6.1,12.7-7.4,27.8-2.3,40.9
		c4.9,12.9,15.7,23.1,28.4,28.5c12.7,5.4,27.1,6.3,40.6,3.7c13.3-2.6,26.1-8.7,36.1-17.8c3.8-3.4,7.1-7.3,9.9-11.6
		c16.9-25.5,13.3-59.1,12.9-88.1c-0.4-26.3-0.7-52.6-1.1-78.9c24.4,13.6,45.3,33.1,58.6,57.6C277,443.9,282.9,468.1,283.1,492.2z"/>
	<path class="st1" d="M338.7,436.1c-0.1-0.3-0.2-0.7-0.3-1.1"/>
	<path class="st11" d="M412.4,494.9c-4,43-19.1,83.7-43,118.1c-12.2,14.7-26.7,28-43.1,39.5c-9.9,7.2-20.3,13.6-31.2,19.2
		c-11.3,5.8-23,10.8-35,15c-10,3.4-20.1,6.9-30.5,9c-6.1,1.2-12.3,2.3-18.6,3.1c-11.2,1.5-22.3,2.3-33.2,2.5c-0.6,0-1.2,0-1.8,0H176
		c-0.1,0-0.1,0-0.2,0c10.9-0.1,21.9-0.9,33-2.5c1.2-0.2,2.5-0.3,3.7-0.5c0.7-0.1,1.4-0.2,2.1-0.3c0.5-0.1,0.9-0.1,1.4-0.2
		c1.1-0.2,2.2-0.4,3.3-0.6c2-0.3,4-0.7,6-1.1c0.9-0.2,1.8-0.4,2.7-0.5c0.4-0.1,0.8-0.2,1.1-0.2c2-0.4,3.9-0.8,5.8-1.3
		c0.2,0,0.3-0.1,0.5-0.1c3.6-1.2,7.2-2.6,10.8-4.1c2.4-1,4.7-2,7-3.1c0.6-0.3,1.2-0.6,1.8-0.9c0.2-0.1,0.3-0.2,0.5-0.2
		c0.2-0.1,0.3-0.2,0.5-0.2c0.3-0.2,0.6-0.3,1-0.5c0.6-0.3,1.2-0.6,1.8-0.9c0.2-0.1,0.4-0.2,0.5-0.3c0.6-0.3,1.2-0.7,1.8-1
		c0.7-0.4,1.4-0.8,2.1-1.2c0.7-0.4,1.4-0.8,2-1.2c0.5-0.3,1.1-0.6,1.6-1c1-0.6,2-1.2,3-1.8c0.5-0.3,0.9-0.6,1.4-0.9
		c0.5-0.3,0.9-0.6,1.4-0.9c0.2-0.2,0.5-0.3,0.7-0.4c0.6-0.4,1.3-0.9,1.9-1.3c1.3-0.9,2.6-1.8,3.9-2.8c47.1-33,78.4-91.6,78.4-158.3
		c0-18.8-2.5-36.9-7.1-54c-0.1-0.3-0.1-0.6-0.2-0.9c-2.4-8.7-5.3-17-8.7-25.1c-0.1-0.6-0.3-1.2-0.5-1.7c-0.1-0.2-0.1-0.5-0.2-0.7
		c-0.1-0.2-0.1-0.5-0.2-0.7c0-0.1,0-0.2-0.1-0.3c0-0.1-0.1-0.2-0.1-0.3c0-0.1,0-0.1-0.1-0.2c-0.1-0.3-0.2-0.6-0.3-1
		c-0.3-1-0.7-2-1-3c-0.2-0.5-0.3-1-0.5-1.4c-0.2-0.5-0.4-1.1-0.6-1.6c-0.2-0.6-0.5-1.2-0.7-1.8c-0.1-0.2-0.2-0.4-0.2-0.6
		c-0.3-0.7-0.5-1.3-0.9-2c0-0.1,0-0.1-0.1-0.2c0-0.1,0-0.1-0.1-0.2c-0.3-0.7-0.6-1.4-0.9-2.1c-0.3-0.8-0.7-1.5-1.1-2.3
		c-0.2-0.4-0.4-0.8-0.6-1.3c0-0.1-0.1-0.1-0.1-0.2c0,0,0-0.1-0.1-0.1c-0.3-0.5-0.5-1.1-0.8-1.7c-0.4-0.8-0.8-1.7-1.2-2.5
		c-1-1.9-2-3.7-3-5.6c-0.2-0.3-0.4-0.7-0.6-1c-0.2-0.3-0.4-0.7-0.6-1c-0.4-0.7-0.8-1.4-1.2-2c-0.3-0.5-0.5-0.9-0.8-1.4
		c-0.8-1.4-1.6-2.7-2.4-4.1c-0.3-0.5-0.5-0.9-0.8-1.4c-0.5-0.9-1.1-1.8-1.7-2.7c-0.6-0.9-1.1-1.8-1.7-2.7c-1.1-1.8-2.3-3.6-3.5-5.4
		c-0.6-0.9-1.2-1.8-1.8-2.6c-0.6-0.9-1.2-1.8-1.8-2.6c-0.6-0.9-1.2-1.8-1.8-2.6c-0.3-0.4-0.6-0.9-0.9-1.3c-0.3-0.4-0.6-0.9-0.9-1.3
		c-0.6-0.9-1.2-1.7-1.8-2.5c-1.1-1.5-2.2-3-3.3-4.5c-0.5-0.7-1-1.4-1.5-2.1c-2.6-3.5-5.1-6.9-7.6-10.1c-0.5-0.6-1-1.3-1.5-1.9
		c-0.5-0.6-1-1.2-1.5-1.9c-0.4-0.5-0.9-1.1-1.3-1.6c-0.1-0.1-0.2-0.3-0.3-0.4c0,0,0-0.1-0.1-0.1c-0.2-0.3-0.5-0.6-0.7-0.9
		c-0.2-0.3-0.4-0.6-0.7-0.8c-0.9-1.1-1.7-2.1-2.5-3.1c-0.4-0.5-0.9-1.1-1.3-1.6c-0.3-0.4-0.6-0.7-0.9-1.1c-0.2-0.3-0.5-0.6-0.7-0.8
		c-0.4-0.5-0.8-0.9-1.1-1.4c-0.3-0.4-0.6-0.7-0.9-1.1c-0.6-0.7-1.1-1.4-1.7-2c-0.4-0.4-0.7-0.9-1.1-1.3c-0.2-0.2-0.4-0.4-0.5-0.6
		c-0.3-0.4-0.7-0.8-1-1.2c-0.2-0.2-0.3-0.4-0.5-0.6c-0.3-0.4-0.6-0.7-0.9-1.1c-0.7-0.9-1.4-1.6-2-2.3c-0.4-0.4-0.7-0.8-1-1.2
		c-0.2-0.3-0.5-0.5-0.6-0.7c-0.1-0.1-0.2-0.2-0.3-0.3c-0.5-0.6-1-1.1-1.2-1.4c0,0-0.1-0.1-0.1-0.1c-0.2-0.2-0.3-0.3-0.3-0.3
		c-7.9-8.8-16.4-16.8-23.5-26.3c-0.4-0.6-0.9-1.2-1.3-1.8c-1-1.3-1.9-2.6-2.8-3.9c-0.4-0.5-0.7-1-1-1.5c-0.4-0.6-0.8-1.2-1.2-1.9
		c-0.4-0.6-0.8-1.2-1.2-1.8l-1.5-2.3c0-0.1-0.1-0.1-0.1-0.2c0,0,0-0.1-0.1-0.1c0,0-0.1-0.1-0.1-0.1c-0.5-0.9-1.1-1.7-1.6-2.6
		c-1.1-1.8-2.1-3.6-3.1-5.5c-0.3-0.5-0.6-1-0.9-1.5c-0.3-0.5-0.5-1-0.8-1.5c-0.5-1-1.1-2.1-1.6-3.1c0,0,0-0.1-0.1-0.1
		c-0.5-0.9-0.9-1.9-1.4-2.8c-0.1-0.1-0.2-0.3-0.2-0.5c-0.5-1-0.9-1.9-1.3-2.9c0,0,0-0.1,0-0.1c-0.5-1-1-2.1-1.4-3.1
		c-0.3-0.8-0.7-1.5-1-2.3c-0.2-0.5-0.4-0.9-0.6-1.4c-0.3-0.8-0.6-1.6-0.9-2.4c-0.3-0.7-0.6-1.5-0.8-2.2c-0.1-0.2-0.1-0.3-0.2-0.5
		c-0.2-0.6-0.5-1.3-0.7-1.9c-0.3-0.9-0.6-1.8-1-2.8c-0.3-0.9-0.6-1.7-0.8-2.6c-0.2-0.7-0.5-1.5-0.7-2.2c-0.2-0.7-0.4-1.5-0.6-2.2
		c-0.2-0.7-0.4-1.5-0.6-2.2c-3.6-13.2-5.6-26.7-5.8-40.6c0-2.1,0-4.1,0-6.2c0-1.3,0.1-2.6,0.1-3.9c0.2-4.6,0.6-9.3,1.2-13.9
		c0.1-1.1,0.3-2.2,0.5-3.4c0-0.2,0.1-0.4,0.1-0.5c0.3-1.9,0.6-3.7,0.9-5.5c1-5,2.2-10.1,3.6-15c0-0.1,0-0.1,0.1-0.2
		c4.3-15.1,10.6-29.6,18.5-43.1c4.5-7.6,9.4-14.8,14.9-21.7c0,0,0,0,0,0c3.9-4.5,8-8.7,12.2-12.8c3.6-3.6,7.3-7.2,11-10.9
		c0.5-0.6,1.1-1.1,1.6-1.7c0,0,0,0,0,0c0,0,0,0,0,0c0,0,0.1,0,0.1,0c0,0,0,0,0.1,0c0.1,0,0.1,0,0.2-0.1c0,0,0,0,0,0
		c0.3-0.1,0.6-0.2,0.8-0.4c0,0,0,0,0,0c0,0.1,0,0.1,0,0.2c0,0,0,0,0,0c0,0.1,0,0.1-0.1,0.2c0,0.1,0,0.1,0,0.1c0,0.1,0,0.1,0,0.2
		c0,0,0,0.1,0,0.1c-5,17.7-8.9,34.9-8.9,53.5c0,25.2,6.9,49.8,16.9,72.8c2.8,6.4,5.7,12.7,8.9,18.9c1.6,3.1,3.3,6.2,4.9,9.2
		c1.6,2.9,2.9,5.9,4.4,8.8c2.8,4.6,5,9.5,7.5,14.3c1.9,3.5,3.9,7,5.9,10.5c2,3.4,4.3,6.5,6.4,9.8c1.2,2,2.4,4.1,3.6,6.2
		c4.7,7.9,9.6,15.8,14.5,23.6c7.6,12.1,15.2,24.3,22.8,36.4c7.6,12.1,15.2,24.3,22.8,36.4c6.8,11,11.4,23.7,15.4,35.9
		c0.6,1.8,1.1,3.6,1.7,5.4c3.6,11.8,6.3,23.6,8.2,35.4C413.8,453.3,414.4,474.4,412.4,494.9z"/>
	<path class="st6" d="M253.2,686.7c-2.3,1.1-4.6,2.2-7,3.1c-3.5,1.5-7.1,2.9-10.8,4.1c-0.2,0-0.3,0.1-0.5,0.1c0.7-0.2,1.3-0.4,2-0.7
		C242.5,691.3,247.9,689.2,253.2,686.7z"/>
	<g class="st7">
		<path class="st12" d="M176.1,486.9c3.8,0.4,7.6,0.8,11.4,1.3c0.3,0,0.5,0,0.8-0.1c0.3-0.2,0.4-0.5,0.5-0.7
			c0.5-1.6,0.9-3.2,1.1-4.8c0-0.2,0-0.4,0-0.5c-0.1-0.1-0.2-0.2-0.4-0.2c-0.6-0.2-1.2-0.4-1.9-0.5c-0.2,0-0.4,0-0.5,0
			c-0.2,0.1-0.2,0.4-0.2,0.6c0,1,0,2,0.1,2.9c0,0.3,0.1,0.7,0.5,0.7"/>
	</g>
</g>
<g id="music-final" class="st0">
	<path class="st13" d="M241.9,323.9c-21.6-28.4-44-54.9-60.5-86.9c-1.2-2.3-2.4-4.6-3.6-6.9c0,1.4,0,2.8,0,4.2
		c0.1,5.3,0.2,10.6,0.2,16v202.1c-4.5-2.7-24.5-4.1-27-4.2h-1c-9.2,0-18.5,1.6-27.1,4.8c-7.1,2.6-14,6.2-20.1,10.8
		c-8.6,6.5-15.8,14.8-20.4,24.5c-6.1,12.7-7.4,27.8-2.3,40.9c4.9,12.9,15.7,23.1,28.4,28.5c12.7,5.4,27.1,6.3,40.6,3.7
		c13.3-2.6,26.1-8.7,36.1-17.8c3.8-3.4,7.1-7.3,9.9-11.6c16.9-25.5,13.3-59.1,12.9-88.1c-0.4-26.3-0.7-52.6-1.1-78.9
		c-0.1-9.4-0.3-18.8-0.4-28.2c3.3,1.4,6.4,3.1,9.5,4.9c10.9,6.6,20.3,15.6,27.5,26.1c4.6,6.7,8.3,14.1,11,21.8
		c0.4,1.3,1.7,4.6,2.8,8.3c1.2,3.1,2.5,6.9,3.4,10.3c2.1-3.5,3.5-7.4,4.4-11.6C270.4,369.7,257.9,344.9,241.9,323.9z M187,484.1
		c0.3,0.5,0.5,1.1,0.8,1.6c0.1,0.1,0.1,0.2,0.2,0.4C187.7,485.4,187.4,484.7,187,484.1z"/>
	<path class="st14" d="M188,486c-0.3-0.7-0.7-1.3-1-2c0.3,0.5,0.5,1.1,0.8,1.6C187.9,485.8,188,485.9,188,486z"/>
</g>
<g id="merged" class="st0">
	<path class="st2" d="M275.7,55c0,0,0,0.1,0,0.1c0,0,0,0,0,0C275.6,55,275.6,55,275.7,55z"/>
	<path class="st3" d="M-42.3,540.6c0.7,5.2,1.7,10.4,2.9,15.5c-3-9.8-4.6-20.2-4.6-31c0-2,0.1-4,0.2-6c0,3.6,0.1,7.2,0.4,10.7
		c0,0,0,0,0,0C-43.2,533.5-42.8,537.1-42.3,540.6z"/>
	<path class="st3" d="M237,693.4c-0.6,0.2-1.3,0.5-2,0.7c0.2,0,0.3-0.1,0.5-0.1c3.6-1.2,7.2-2.6,10.8-4.1c2.4-1,4.7-2,7-3.1
		C247.9,689.2,242.5,691.3,237,693.4z"/>
	<path class="st10" d="M357.4,512.9c0,66.7-31.3,125.2-78.4,158.3c-1.3,0.9-2.6,1.9-3.9,2.8c-0.6,0.4-1.3,0.9-1.9,1.3
		c-0.2,0.1-0.5,0.3-0.7,0.4c-0.5,0.3-0.9,0.6-1.4,0.9c-0.5,0.3-0.9,0.6-1.4,0.9c-1,0.6-2,1.2-3,1.8c-0.5,0.3-1.1,0.7-1.6,1
		c-0.7,0.4-1.4,0.8-2,1.2c-0.7,0.4-1.4,0.8-2.1,1.2c-0.6,0.3-1.2,0.7-1.8,1c-0.2,0.1-0.4,0.2-0.5,0.3c-0.6,0.3-1.2,0.6-1.8,0.9
		c-0.3,0.2-0.6,0.3-1,0.5c-0.3,0.2-0.6,0.3-1,0.5c-0.6,0.3-1.2,0.6-1.8,0.9c-5.3,2.5-10.7,4.6-16.2,6.7c-0.6,0.2-1.3,0.5-2,0.7
		c-1.9,0.5-3.9,0.9-5.8,1.3c-0.4,0.1-0.7,0.2-1.1,0.2c-0.9,0.2-1.8,0.4-2.7,0.5c-2,0.4-4,0.8-6,1.1c-1.1,0.2-2.2,0.4-3.3,0.6
		c-0.5,0.1-1,0.2-1.4,0.2c-0.7,0.1-1.4,0.2-2.1,0.3c-1.2,0.2-2.5,0.4-3.7,0.5c-11.1,1.5-22.1,2.3-33,2.5c0.1,0,0.1,0,0.2,0
		c-10.3,0.1-20.4-0.4-30.3-1.5c-41.7-4.5-82.6-18.9-116.3-43.8C-2,633-26.5,600.9-37.4,563.7c-0.8-2.7-1.5-5.5-2.2-8.2
		c-9.9-42.3-1.7-86.8,20.6-124.3c2.5-4.2,5.2-8.3,8.1-12.4c-1.1,2-2.1,3.9-3,6c-4.9,10.2-8.6,21.1-10.9,32.2v0c0,0,0,0,0,0.1v0
		c-0.7,3.3-1.3,6.6-1.7,10c-1,7.6-1.5,15.2-1.2,22.9c0.3,9.5,1.5,19,3.7,28.3c4.5,19.3,12.7,37.3,23.9,53.2
		c16.1,22.9,38.3,41.5,64.3,53.5c42.4,19.6,95.7,25.6,138.7,4.4c19.7-9.7,35.3-24,47.7-41.1c4.3-5.9,8.1-12.1,11.7-18.6
		c5.7-10.5,10.5-21.3,14-32.5c4.1-13,6.5-26.5,6.8-40.4c0-1.5,0-2.9,0-4.4c-0.2-24.1-6.1-48.3-17.6-69.5
		c-13.2-24.4-34.2-44-58.6-57.6c-0.1-9.4-0.3-18.8-0.4-28.2c3.3,1.4,6.4,3.1,9.5,4.9c10.9,6.6,20.3,15.6,27.5,26.1
		c4.6,6.7,8.3,14.1,11,21.8c0.4,1.3,1.7,4.6,2.8,8.3c1.2,3.1,2.5,6.9,3.4,10.3c2.1-3.5,3.5-7.4,4.4-11.6c5.4-27-7.2-51.9-23.1-72.8
		c-21.6-28.4-44-54.9-60.5-86.9c-1.2-2.3-2.4-4.6-3.6-6.9c0,1.4,0,2.8,0,4.2c0.1,5.3,0.2,10.6,0.2,16v101.8
		c-1.8-0.6-3.6-1.2-5.5-1.8c-3.3-1-6.6-1.9-9.9-2.8c-12.1-12-20-28.7-26.6-43.8c-8.9-20.5-13.4-43-13.4-65.2c0-4.8,0.2-9.5,0.6-14.1
		c3.4-39.3,21.4-76.1,48.2-105.2c27.5-29.9,63.2-51.3,101.8-64.1c0,0,0,0,0,0c0.4-0.1,0.9-0.3,1.3-0.4c-0.5,0.6-1.1,1.1-1.6,1.7
		c-3.6,3.7-7.3,7.2-11,10.9c-4.2,4.1-8.3,8.4-12.2,12.8c0,0,0,0,0,0c-5.5,6.9-10.5,14.1-14.9,21.7c-7.9,13.5-14.2,28-18.5,43.1
		c0,0.1,0,0.1-0.1,0.2c-1.4,5-2.6,10-3.6,15c0,0,0,0,0,0c-0.3,1.8-0.6,3.7-0.9,5.5c0,0.2,0,0.4-0.1,0.5c-0.2,1.1-0.3,2.2-0.5,3.4
		c-0.6,4.6-1,9.3-1.2,13.9c-0.1,1.3-0.1,2.6-0.1,3.9c0,2-0.1,4.1,0,6.2c0.2,13.8,2.1,27.4,5.8,40.6c0.2,0.7,0.4,1.5,0.6,2.2
		c0.2,0.7,0.4,1.5,0.6,2.2c0.2,0.7,0.4,1.4,0.7,2.2c0.3,0.9,0.6,1.7,0.8,2.6c0.3,0.9,0.6,1.8,1,2.8c0.2,0.6,0.5,1.3,0.7,1.9
		c0.1,0.2,0.1,0.3,0.2,0.5c0.3,0.7,0.5,1.5,0.8,2.2c0.3,0.8,0.6,1.6,0.9,2.4c0.2,0.5,0.4,0.9,0.6,1.4c0.3,0.8,0.6,1.5,1,2.3
		c0.5,1.1,0.9,2.1,1.4,3.1c0,0,0,0.1,0,0.1c0.4,1,0.9,1.9,1.3,2.9c0.1,0.1,0.1,0.3,0.2,0.5c0.4,0.9,0.9,1.9,1.4,2.8
		c0,0,0,0.1,0.1,0.1c0.5,1,1.1,2.1,1.6,3.1c0.3,0.5,0.5,1,0.8,1.5c0.3,0.5,0.6,1,0.9,1.5c1,1.8,2.1,3.7,3.1,5.5
		c0.5,0.9,1.1,1.8,1.6,2.6c0,0,0.1,0.1,0.1,0.1c0,0,0,0.1,0.1,0.1c0,0.1,0.1,0.1,0.1,0.2l1.5,2.3c0.4,0.6,0.8,1.2,1.2,1.8
		c0.4,0.6,0.8,1.2,1.2,1.9c0.4,0.5,0.7,1,1,1.5c0.9,1.3,1.8,2.6,2.8,3.9c0.4,0.6,0.9,1.2,1.3,1.8c7.1,9.5,15.6,17.5,23.5,26.3
		c0,0,0.1,0.1,0.3,0.3c0,0,0.1,0.1,0.1,0.1c0.3,0.3,0.7,0.8,1.2,1.4c0.1,0.1,0.2,0.2,0.3,0.3c0.2,0.2,0.4,0.5,0.6,0.7
		c0.3,0.4,0.6,0.8,1,1.2c0.6,0.7,1.3,1.5,2,2.3c0.3,0.3,0.6,0.7,0.9,1.1c0.2,0.2,0.3,0.4,0.5,0.6c0.3,0.4,0.6,0.8,1,1.2
		c0.2,0.2,0.3,0.4,0.5,0.6c0.3,0.4,0.7,0.8,1.1,1.3c0.5,0.6,1.1,1.3,1.7,2c0.3,0.4,0.6,0.7,0.9,1.1c0.4,0.5,0.8,0.9,1.1,1.4
		c0.2,0.3,0.5,0.6,0.7,0.8c0.3,0.4,0.6,0.7,0.9,1.1c0.4,0.5,0.9,1.1,1.3,1.6c0.8,1,1.6,2,2.5,3.1c0.2,0.3,0.5,0.6,0.7,0.8
		c0.2,0.3,0.5,0.6,0.7,0.9c0,0,0,0.1,0.1,0.1c0.1,0.1,0.2,0.3,0.3,0.4c0.4,0.5,0.8,1.1,1.3,1.6c0.5,0.6,1,1.2,1.5,1.9
		c0.5,0.6,1,1.2,1.5,1.9c2.5,3.2,5,6.6,7.6,10.1c0.5,0.7,1,1.4,1.5,2.1c1.1,1.5,2.2,3,3.3,4.5c0.6,0.9,1.2,1.7,1.8,2.5
		c0.3,0.4,0.6,0.9,0.9,1.3c0.3,0.4,0.6,0.9,0.9,1.3c0.6,0.9,1.2,1.7,1.8,2.6c0.6,0.9,1.2,1.8,1.8,2.6c0.6,0.9,1.2,1.8,1.8,2.6
		c1.2,1.8,2.3,3.6,3.5,5.4c0.6,0.9,1.1,1.8,1.7,2.7c0.6,0.9,1.1,1.8,1.7,2.7c0.3,0.5,0.6,0.9,0.8,1.4c0.8,1.3,1.6,2.7,2.4,4.1
		c0.3,0.5,0.5,0.9,0.8,1.4c0.4,0.7,0.8,1.4,1.2,2c0.2,0.3,0.4,0.7,0.6,1c0.2,0.3,0.4,0.7,0.6,1c1,1.9,2,3.8,3,5.6
		c0.4,0.8,0.8,1.7,1.2,2.5c0.3,0.6,0.5,1.1,0.8,1.7c0,0,0,0.1,0.1,0.1c0,0.1,0.1,0.1,0.1,0.2c0.2,0.4,0.4,0.8,0.6,1.3
		c0.4,0.8,0.7,1.5,1.1,2.3c0.3,0.7,0.6,1.4,0.9,2.1c0,0.1,0,0.1,0.1,0.2c0,0.1,0.1,0.1,0.1,0.2c0.3,0.7,0.6,1.3,0.9,2
		c0.1,0.2,0.2,0.4,0.2,0.6c0.2,0.6,0.5,1.2,0.7,1.8c0.2,0.5,0.4,1.1,0.6,1.6c0.2,0.5,0.4,1,0.5,1.4c0.4,1,0.7,2,1,3
		c0.1,0.3,0.2,0.6,0.3,1c0,0.1,0,0.1,0.1,0.2c0,0.1,0.1,0.2,0.1,0.3c0,0.1,0,0.2,0.1,0.3c0.1,0.2,0.1,0.5,0.2,0.7
		c0.1,0.2,0.1,0.5,0.2,0.7c0.2,0.6,0.3,1.2,0.5,1.7c3.4,8.1,6.4,16.5,8.7,25.1c0.1,0.3,0.2,0.6,0.2,0.9
		C354.9,476,357.4,494.1,357.4,512.9z"/>
	<path class="st15" d="M265,396.7c-0.8,4.2-2.2,8.1-4.4,11.6c-0.9-3.4-2.2-7.1-3.4-10.3c-1.1-3.7-2.4-7-2.8-8.3
		c-2.6-7.7-6.4-15.1-11-21.8c-7.2-10.5-16.6-19.5-27.5-26.1c-3-1.8-6.2-3.5-9.5-4.9c0.1,9.4,0.3,18.8,0.4,28.2
		c0.4,26.3,0.7,52.6,1.1,78.9c0.4,29,3.9,62.7-12.9,88.1c-2.8,4.3-6.2,8.1-9.9,11.6c-10,9.1-22.8,15.2-36.1,17.8
		c-13.5,2.6-27.9,1.8-40.6-3.7C95.8,552.4,85,542.2,80,529.3c-5-13.1-3.7-28.2,2.3-40.9c4.6-9.7,11.8-18.1,20.4-24.5
		c6.1-4.6,12.9-8.2,20.1-10.8c8.7-3.1,17.9-4.7,27.1-4.8h0.9c2.5,0,22.5,1.5,27.1,4.2V250.4c0-5.3-0.1-10.6-0.2-16
		c0-1.4,0-2.8-0.1-4.2c1.2,2.3,2.4,4.6,3.6,6.9c16.6,31.9,38.9,58.5,60.5,86.9C257.9,344.9,270.4,369.7,265,396.7z"/>
	<path class="st5" d="M283.1,492.2c0,1.4,0,2.9,0,4.4c-0.3,13.9-2.7,27.4-6.8,40.4c-3.5,11.2-8.3,22-14,32.5
		c-3.5,6.5-7.4,12.7-11.7,18.6c-12.4,17.2-28,31.4-47.7,41.1c-43,21.2-96.3,15.2-138.7-4.4c-25.9-12-48.1-30.6-64.3-53.5
		c-11.2-15.9-19.4-33.9-23.9-53.2c-2.2-9.3-3.4-18.8-3.7-28.3c-0.2-7.7,0.2-15.3,1.2-22.9c0.5-3.3,1-6.7,1.7-10v0c0,0,0,0,0-0.1v0
		c2.3-11.1,6-21.9,10.9-32.2c1-2,2-4,3-6c5.2-9.7,11.7-18.7,19-26.9c0,0,0,0,0,0c22.5-25.2,53.8-42.4,87.6-47.4
		c20.9-3,42.4-2.3,63,2.3c1.3,0.3,2.6,0.6,3.8,0.9c3.3,0.8,6.6,1.7,9.9,2.8c1.8,0.6,3.6,1.2,5.5,1.8v100.2c-4.5-2.7-24.5-4.1-27-4.2
		h-1c-9.2,0-18.5,1.6-27.1,4.8c-7.1,2.6-14,6.2-20.1,10.8c-8.6,6.5-15.8,14.8-20.4,24.5c-6.1,12.7-7.4,27.8-2.3,40.9
		c4.9,12.9,15.7,23.1,28.4,28.5c12.7,5.4,27.1,6.3,40.6,3.7c13.3-2.6,26.1-8.7,36.1-17.8c3.8-3.4,7.1-7.3,9.9-11.6
		c16.9-25.5,13.3-59.1,12.9-88.1c-0.4-26.3-0.7-52.6-1.1-78.9c24.4,13.6,45.3,33.1,58.6,57.6C277,443.9,282.9,468.1,283.1,492.2z"/>
	<path class="st1" d="M338.7,436.1c-0.1-0.3-0.2-0.7-0.3-1.1"/>
	<path class="st11" d="M412.4,494.9c-4,43-19.1,83.7-43,118.1c-12.2,14.7-26.7,28-43.1,39.5c-9.9,7.2-20.3,13.6-31.2,19.2
		c-11.3,5.8-23,10.8-35,15c-10,3.4-20.1,6.9-30.5,9c-6.1,1.2-12.3,2.3-18.6,3.1c-11.2,1.5-22.3,2.3-33.2,2.5c-0.6,0-1.2,0-1.8,0H176
		c-0.1,0-0.1,0-0.2,0c10.9-0.1,21.9-0.9,33-2.5c1.2-0.2,2.5-0.3,3.7-0.5c0.7-0.1,1.4-0.2,2.1-0.3c0.5-0.1,0.9-0.1,1.4-0.2
		c1.1-0.2,2.2-0.4,3.3-0.6c2-0.3,4-0.7,6-1.1c0.9-0.2,1.8-0.4,2.7-0.5c0.4-0.1,0.8-0.2,1.1-0.2c2-0.4,3.9-0.8,5.8-1.3
		c0.2,0,0.3-0.1,0.5-0.1c3.6-1.2,7.2-2.6,10.8-4.1c2.4-1,4.7-2,7-3.1c0.6-0.3,1.2-0.6,1.8-0.9c0.2-0.1,0.3-0.2,0.5-0.2
		c0.2-0.1,0.3-0.2,0.5-0.2c0.3-0.2,0.6-0.3,1-0.5c0.6-0.3,1.2-0.6,1.8-0.9c0.2-0.1,0.4-0.2,0.5-0.3c0.6-0.3,1.2-0.7,1.8-1
		c0.7-0.4,1.4-0.8,2.1-1.2c0.7-0.4,1.4-0.8,2-1.2c0.5-0.3,1.1-0.6,1.6-1c1-0.6,2-1.2,3-1.8c0.5-0.3,0.9-0.6,1.4-0.9
		c0.5-0.3,0.9-0.6,1.4-0.9c0.2-0.2,0.5-0.3,0.7-0.4c0.6-0.4,1.3-0.9,1.9-1.3c1.3-0.9,2.6-1.8,3.9-2.8c47.1-33,78.4-91.6,78.4-158.3
		c0-18.8-2.5-36.9-7.1-54c-0.1-0.3-0.1-0.6-0.2-0.9c-2.4-8.7-5.3-17-8.7-25.1c-0.1-0.6-0.3-1.2-0.5-1.7c-0.1-0.2-0.1-0.5-0.2-0.7
		c-0.1-0.2-0.1-0.5-0.2-0.7c0-0.1,0-0.2-0.1-0.3c0-0.1-0.1-0.2-0.1-0.3c0-0.1,0-0.1-0.1-0.2c-0.1-0.3-0.2-0.6-0.3-1
		c-0.3-1-0.7-2-1-3c-0.2-0.5-0.3-1-0.5-1.4c-0.2-0.5-0.4-1.1-0.6-1.6c-0.2-0.6-0.5-1.2-0.7-1.8c-0.1-0.2-0.2-0.4-0.2-0.6
		c-0.3-0.7-0.5-1.3-0.9-2c0-0.1,0-0.1-0.1-0.2c0-0.1,0-0.1-0.1-0.2c-0.3-0.7-0.6-1.4-0.9-2.1c-0.3-0.8-0.7-1.5-1.1-2.3
		c-0.2-0.4-0.4-0.8-0.6-1.3c0-0.1-0.1-0.1-0.1-0.2c0,0,0-0.1-0.1-0.1c-0.3-0.5-0.5-1.1-0.8-1.7c-0.4-0.8-0.8-1.7-1.2-2.5
		c-1-1.9-2-3.7-3-5.6c-0.2-0.3-0.4-0.7-0.6-1c-0.2-0.3-0.4-0.7-0.6-1c-0.4-0.7-0.8-1.4-1.2-2c-0.3-0.5-0.5-0.9-0.8-1.4
		c-0.8-1.4-1.6-2.7-2.4-4.1c-0.3-0.5-0.5-0.9-0.8-1.4c-0.5-0.9-1.1-1.8-1.7-2.7c-0.6-0.9-1.1-1.8-1.7-2.7c-1.1-1.8-2.3-3.6-3.5-5.4
		c-0.6-0.9-1.2-1.8-1.8-2.6c-0.6-0.9-1.2-1.8-1.8-2.6c-0.6-0.9-1.2-1.8-1.8-2.6c-0.3-0.4-0.6-0.9-0.9-1.3c-0.3-0.4-0.6-0.9-0.9-1.3
		c-0.6-0.9-1.2-1.7-1.8-2.5c-1.1-1.5-2.2-3-3.3-4.5c-0.5-0.7-1-1.4-1.5-2.1c-2.6-3.5-5.1-6.9-7.6-10.1c-0.5-0.6-1-1.3-1.5-1.9
		c-0.5-0.6-1-1.2-1.5-1.9c-0.4-0.5-0.9-1.1-1.3-1.6c-0.1-0.1-0.2-0.3-0.3-0.4c0,0,0-0.1-0.1-0.1c-0.2-0.3-0.5-0.6-0.7-0.9
		c-0.2-0.3-0.4-0.6-0.7-0.8c-0.9-1.1-1.7-2.1-2.5-3.1c-0.4-0.5-0.9-1.1-1.3-1.6c-0.3-0.4-0.6-0.7-0.9-1.1c-0.2-0.3-0.5-0.6-0.7-0.8
		c-0.4-0.5-0.8-0.9-1.1-1.4c-0.3-0.4-0.6-0.7-0.9-1.1c-0.6-0.7-1.1-1.4-1.7-2c-0.4-0.4-0.7-0.9-1.1-1.3c-0.2-0.2-0.4-0.4-0.5-0.6
		c-0.3-0.4-0.7-0.8-1-1.2c-0.2-0.2-0.3-0.4-0.5-0.6c-0.3-0.4-0.6-0.7-0.9-1.1c-0.7-0.9-1.4-1.6-2-2.3c-0.4-0.4-0.7-0.8-1-1.2
		c-0.2-0.3-0.5-0.5-0.6-0.7c-0.1-0.1-0.2-0.2-0.3-0.3c-0.5-0.6-1-1.1-1.2-1.4c0,0-0.1-0.1-0.1-0.1c-0.2-0.2-0.3-0.3-0.3-0.3
		c-7.9-8.8-16.4-16.8-23.5-26.3c-0.4-0.6-0.9-1.2-1.3-1.8c-1-1.3-1.9-2.6-2.8-3.9c-0.4-0.5-0.7-1-1-1.5c-0.4-0.6-0.8-1.2-1.2-1.9
		c-0.4-0.6-0.8-1.2-1.2-1.8l-1.5-2.3c0-0.1-0.1-0.1-0.1-0.2c0,0,0-0.1-0.1-0.1c0,0-0.1-0.1-0.1-0.1c-0.5-0.9-1.1-1.7-1.6-2.6
		c-1.1-1.8-2.1-3.6-3.1-5.5c-0.3-0.5-0.6-1-0.9-1.5c-0.3-0.5-0.5-1-0.8-1.5c-0.5-1-1.1-2.1-1.6-3.1c0,0,0-0.1-0.1-0.1
		c-0.5-0.9-0.9-1.9-1.4-2.8c-0.1-0.1-0.2-0.3-0.2-0.5c-0.5-1-0.9-1.9-1.3-2.9c0,0,0-0.1,0-0.1c-0.5-1-1-2.1-1.4-3.1
		c-0.3-0.8-0.7-1.5-1-2.3c-0.2-0.5-0.4-0.9-0.6-1.4c-0.3-0.8-0.6-1.6-0.9-2.4c-0.3-0.7-0.6-1.5-0.8-2.2c-0.1-0.2-0.1-0.3-0.2-0.5
		c-0.2-0.6-0.5-1.3-0.7-1.9c-0.3-0.9-0.6-1.8-1-2.8c-0.3-0.9-0.6-1.7-0.8-2.6c-0.2-0.7-0.5-1.5-0.7-2.2c-0.2-0.7-0.4-1.5-0.6-2.2
		c-0.2-0.7-0.4-1.5-0.6-2.2c-3.6-13.2-5.6-26.7-5.8-40.6c0-2.1,0-4.1,0-6.2c0-1.3,0.1-2.6,0.1-3.9c0.2-4.6,0.6-9.3,1.2-13.9
		c0.1-1.1,0.3-2.2,0.5-3.4c0-0.2,0.1-0.4,0.1-0.5c0.3-1.9,0.6-3.7,0.9-5.5c1-5,2.2-10.1,3.6-15c0-0.1,0-0.1,0.1-0.2
		c4.3-15.1,10.6-29.6,18.5-43.1c4.5-7.6,9.4-14.8,14.9-21.7c0,0,0,0,0,0c3.9-4.5,8-8.7,12.2-12.8c3.6-3.6,7.3-7.2,11-10.9
		c0.5-0.6,1.1-1.1,1.6-1.7c0,0,0,0,0,0c0,0,0,0,0,0c0,0,0.1,0,0.1,0c0,0,0,0,0.1,0c0.1,0,0.1,0,0.2-0.1c0,0,0,0,0,0
		c0.3-0.1,0.6-0.2,0.8-0.4c0,0,0,0,0,0c0,0.1,0,0.1,0,0.2c0,0,0,0,0,0c0,0.1,0,0.1-0.1,0.2c0,0.1,0,0.1,0,0.1c0,0.1,0,0.1,0,0.2
		c0,0,0,0.1,0,0.1c-5,17.7-8.9,34.9-8.9,53.5c0,25.2,6.9,49.8,16.9,72.8c2.8,6.4,5.7,12.7,8.9,18.9c1.6,3.1,3.3,6.2,4.9,9.2
		c1.6,2.9,2.9,5.9,4.4,8.8c2.8,4.6,5,9.5,7.5,14.3c1.9,3.5,3.9,7,5.9,10.5c2,3.4,4.3,6.5,6.4,9.8c1.2,2,2.4,4.1,3.6,6.2
		c4.7,7.9,9.6,15.8,14.5,23.6c7.6,12.1,15.2,24.3,22.8,36.4c7.6,12.1,15.2,24.3,22.8,36.4c6.8,11,11.4,23.7,15.4,35.9
		c0.6,1.8,1.1,3.6,1.7,5.4c3.6,11.8,6.3,23.6,8.2,35.4C413.8,453.3,414.4,474.4,412.4,494.9z"/>
	<path class="st6" d="M253.2,686.7c-2.3,1.1-4.6,2.2-7,3.1c-3.5,1.5-7.1,2.9-10.8,4.1c-0.2,0-0.3,0.1-0.5,0.1c0.7-0.2,1.3-0.4,2-0.7
		C242.5,691.3,247.9,689.2,253.2,686.7z"/>
	<path class="st14" d="M561,416c0.6-0.7,1.2-1.3,1.8-2c-0.5,0.5-1,1.1-1.5,1.6C561.2,415.8,561.1,415.9,561,416z"/>
</g>
<g id="mer-grad" class="st0">
	<path class="st2" d="M275.7,55c0,0,0,0.1,0,0.1c0,0,0,0,0,0C275.6,55,275.6,55,275.7,55z"/>
	
		<linearGradient id="SVGID_1_" gradientUnits="userSpaceOnUse" x1="-43.99" y1="241.87" x2="-39.41" y2="241.87" gradientTransform="matrix(1 0 0 -1 0 779.52)">
		<stop  offset="4.888180e-07" style="stop-color:#00FFFF"/>
		<stop  offset="1" style="stop-color:#0000FF"/>
	</linearGradient>
	<path class="st16" d="M-42.3,540.6c0.7,5.2,1.7,10.4,2.9,15.5c-3-9.8-4.6-20.2-4.6-31c0-2,0.1-4,0.2-6c0,3.6,0.1,7.2,0.4,10.7
		c0,0,0,0,0,0C-43.2,533.5-42.8,537.1-42.3,540.6z"/>
	<path class="st3" d="M237,693.4c-0.6,0.2-1.3,0.5-2,0.7c0.2,0,0.3-0.1,0.5-0.1c3.6-1.2,7.2-2.6,10.8-4.1c2.4-1,4.7-2,7-3.1
		C247.9,689.2,242.5,691.3,237,693.4z"/>
	
		<radialGradient id="SVGID_2_" cx="156.8657" cy="401.4308" r="402.9508" gradientTransform="matrix(1 0 0 -1 0 779.52)" gradientUnits="userSpaceOnUse">
		<stop  offset="0" style="stop-color:#00FFFF"/>
		<stop  offset="0.1043" style="stop-color:#00FBFF"/>
		<stop  offset="0.2037" style="stop-color:#00F0FF"/>
		<stop  offset="0.3011" style="stop-color:#00DCFF"/>
		<stop  offset="0.3974" style="stop-color:#00C1FF"/>
		<stop  offset="0.4929" style="stop-color:#009FFF"/>
		<stop  offset="0.5878" style="stop-color:#0074FF"/>
		<stop  offset="0.6822" style="stop-color:#0041FF"/>
		<stop  offset="0.774" style="stop-color:#0008FF"/>
		<stop  offset="0.7858" style="stop-color:#0000FF"/>
	</radialGradient>
	<path class="st17" d="M357.4,512.9c0,66.7-31.3,125.2-78.4,158.3c-1.3,0.9-2.6,1.9-3.9,2.8c-0.6,0.4-1.3,0.9-1.9,1.3
		c-0.2,0.1-0.5,0.3-0.7,0.4c-0.5,0.3-0.9,0.6-1.4,0.9c-0.5,0.3-0.9,0.6-1.4,0.9c-1,0.6-2,1.2-3,1.8c-0.5,0.3-1.1,0.7-1.6,1
		c-0.7,0.4-1.4,0.8-2,1.2c-0.7,0.4-1.4,0.8-2.1,1.2c-0.6,0.3-1.2,0.7-1.8,1c-0.2,0.1-0.4,0.2-0.5,0.3c-0.6,0.3-1.2,0.6-1.8,0.9
		c-0.3,0.2-0.6,0.3-1,0.5c-0.3,0.2-0.6,0.3-1,0.5c-0.6,0.3-1.2,0.6-1.8,0.9c-5.3,2.5-10.7,4.6-16.2,6.7c-0.6,0.2-1.3,0.5-2,0.7
		c-1.9,0.5-3.9,0.9-5.8,1.3c-0.4,0.1-0.7,0.2-1.1,0.2c-0.9,0.2-1.8,0.4-2.7,0.5c-2,0.4-4,0.8-6,1.1c-1.1,0.2-2.2,0.4-3.3,0.6
		c-0.5,0.1-1,0.2-1.4,0.2c-0.7,0.1-1.4,0.2-2.1,0.3c-1.2,0.2-2.5,0.4-3.7,0.5c-11.1,1.5-22.1,2.3-33,2.5c0.1,0,0.1,0,0.2,0
		c-10.3,0.1-20.4-0.4-30.3-1.5c-41.7-4.5-82.6-18.9-116.3-43.8C-2,633-26.5,600.9-37.4,563.7c-0.8-2.7-1.5-5.5-2.2-8.2
		c-9.9-42.3-1.7-86.8,20.6-124.3c2.5-4.2,5.2-8.3,8.1-12.4c-1.1,2-2.1,3.9-3,6c-4.9,10.2-8.6,21.1-10.9,32.2v0c0,0,0,0,0,0.1v0
		c-0.7,3.3-1.3,6.6-1.7,10c-1,7.6-1.5,15.2-1.2,22.9c0.3,9.5,1.5,19,3.7,28.3c4.5,19.3,12.7,37.3,23.9,53.2
		c16.1,22.9,38.3,41.5,64.3,53.5c42.4,19.6,95.7,25.6,138.7,4.4c19.7-9.7,35.3-24,47.7-41.1c4.3-5.9,8.1-12.1,11.7-18.6
		c5.7-10.5,10.5-21.3,14-32.5c4.1-13,6.5-26.5,6.8-40.4c0-1.5,0-2.9,0-4.4c-0.2-24.1-6.1-48.3-17.6-69.5
		c-13.2-24.4-34.2-44-58.6-57.6c-0.1-9.4-0.3-18.8-0.4-28.2c3.3,1.4,6.4,3.1,9.5,4.9c10.9,6.6,20.3,15.6,27.5,26.1
		c4.6,6.7,8.3,14.1,11,21.8c0.4,1.3,1.7,4.6,2.8,8.3c1.2,3.1,2.5,6.9,3.4,10.3c2.1-3.5,3.5-7.4,4.4-11.6c5.4-27-7.2-51.9-23.1-72.8
		c-21.6-28.4-44-54.9-60.5-86.9c-1.2-2.3-2.4-4.6-3.6-6.9c0,1.4,0,2.8,0,4.2c0.1,5.3,0.2,10.6,0.2,16v101.8
		c-1.8-0.6-3.6-1.2-5.5-1.8c-3.3-1-6.6-1.9-9.9-2.8c-12.1-12-20-28.7-26.6-43.8c-8.9-20.5-13.4-43-13.4-65.2c0-4.8,0.2-9.5,0.6-14.1
		c3.4-39.3,21.4-76.1,48.2-105.2c27.5-29.9,63.2-51.3,101.8-64.1c0,0,0,0,0,0c0.4-0.1,0.9-0.3,1.3-0.4c-0.5,0.6-1.1,1.1-1.6,1.7
		c-3.6,3.7-7.3,7.2-11,10.9c-4.2,4.1-8.3,8.4-12.2,12.8c0,0,0,0,0,0c-5.5,6.9-10.5,14.1-14.9,21.7c-7.9,13.5-14.2,28-18.5,43.1
		c0,0.1,0,0.1-0.1,0.2c-1.4,5-2.6,10-3.6,15c0,0,0,0,0,0c-0.3,1.8-0.6,3.7-0.9,5.5c0,0.2,0,0.4-0.1,0.5c-0.2,1.1-0.3,2.2-0.5,3.4
		c-0.6,4.6-1,9.3-1.2,13.9c-0.1,1.3-0.1,2.6-0.1,3.9c0,2-0.1,4.1,0,6.2c0.2,13.8,2.1,27.4,5.8,40.6c0.2,0.7,0.4,1.5,0.6,2.2
		c0.2,0.7,0.4,1.5,0.6,2.2c0.2,0.7,0.4,1.4,0.7,2.2c0.3,0.9,0.6,1.7,0.8,2.6c0.3,0.9,0.6,1.8,1,2.8c0.2,0.6,0.5,1.3,0.7,1.9
		c0.1,0.2,0.1,0.3,0.2,0.5c0.3,0.7,0.5,1.5,0.8,2.2c0.3,0.8,0.6,1.6,0.9,2.4c0.2,0.5,0.4,0.9,0.6,1.4c0.3,0.8,0.6,1.5,1,2.3
		c0.5,1.1,0.9,2.1,1.4,3.1c0,0,0,0.1,0,0.1c0.4,1,0.9,1.9,1.3,2.9c0.1,0.1,0.1,0.3,0.2,0.5c0.4,0.9,0.9,1.9,1.4,2.8
		c0,0,0,0.1,0.1,0.1c0.5,1,1.1,2.1,1.6,3.1c0.3,0.5,0.5,1,0.8,1.5c0.3,0.5,0.6,1,0.9,1.5c1,1.8,2.1,3.7,3.1,5.5
		c0.5,0.9,1.1,1.8,1.6,2.6c0,0,0.1,0.1,0.1,0.1c0,0,0,0.1,0.1,0.1c0,0.1,0.1,0.1,0.1,0.2l1.5,2.3c0.4,0.6,0.8,1.2,1.2,1.8
		c0.4,0.6,0.8,1.2,1.2,1.9c0.4,0.5,0.7,1,1,1.5c0.9,1.3,1.8,2.6,2.8,3.9c0.4,0.6,0.9,1.2,1.3,1.8c7.1,9.5,15.6,17.5,23.5,26.3
		c0,0,0.1,0.1,0.3,0.3c0,0,0.1,0.1,0.1,0.1c0.3,0.3,0.7,0.8,1.2,1.4c0.1,0.1,0.2,0.2,0.3,0.3c0.2,0.2,0.4,0.5,0.6,0.7
		c0.3,0.4,0.6,0.8,1,1.2c0.6,0.7,1.3,1.5,2,2.3c0.3,0.3,0.6,0.7,0.9,1.1c0.2,0.2,0.3,0.4,0.5,0.6c0.3,0.4,0.6,0.8,1,1.2
		c0.2,0.2,0.3,0.4,0.5,0.6c0.3,0.4,0.7,0.8,1.1,1.3c0.5,0.6,1.1,1.3,1.7,2c0.3,0.4,0.6,0.7,0.9,1.1c0.4,0.5,0.8,0.9,1.1,1.4
		c0.2,0.3,0.5,0.6,0.7,0.8c0.3,0.4,0.6,0.7,0.9,1.1c0.4,0.5,0.9,1.1,1.3,1.6c0.8,1,1.6,2,2.5,3.1c0.2,0.3,0.5,0.6,0.7,0.8
		c0.2,0.3,0.5,0.6,0.7,0.9c0,0,0,0.1,0.1,0.1c0.1,0.1,0.2,0.3,0.3,0.4c0.4,0.5,0.8,1.1,1.3,1.6c0.5,0.6,1,1.2,1.5,1.9
		c0.5,0.6,1,1.2,1.5,1.9c2.5,3.2,5,6.6,7.6,10.1c0.5,0.7,1,1.4,1.5,2.1c1.1,1.5,2.2,3,3.3,4.5c0.6,0.9,1.2,1.7,1.8,2.5
		c0.3,0.4,0.6,0.9,0.9,1.3c0.3,0.4,0.6,0.9,0.9,1.3c0.6,0.9,1.2,1.7,1.8,2.6c0.6,0.9,1.2,1.8,1.8,2.6c0.6,0.9,1.2,1.8,1.8,2.6
		c1.2,1.8,2.3,3.6,3.5,5.4c0.6,0.9,1.1,1.8,1.7,2.7c0.6,0.9,1.1,1.8,1.7,2.7c0.3,0.5,0.6,0.9,0.8,1.4c0.8,1.3,1.6,2.7,2.4,4.1
		c0.3,0.5,0.5,0.9,0.8,1.4c0.4,0.7,0.8,1.4,1.2,2c0.2,0.3,0.4,0.7,0.6,1c0.2,0.3,0.4,0.7,0.6,1c1,1.9,2,3.8,3,5.6
		c0.4,0.8,0.8,1.7,1.2,2.5c0.3,0.6,0.5,1.1,0.8,1.7c0,0,0,0.1,0.1,0.1c0,0.1,0.1,0.1,0.1,0.2c0.2,0.4,0.4,0.8,0.6,1.3
		c0.4,0.8,0.7,1.5,1.1,2.3c0.3,0.7,0.6,1.4,0.9,2.1c0,0.1,0,0.1,0.1,0.2c0,0.1,0.1,0.1,0.1,0.2c0.3,0.7,0.6,1.3,0.9,2
		c0.1,0.2,0.2,0.4,0.2,0.6c0.2,0.6,0.5,1.2,0.7,1.8c0.2,0.5,0.4,1.1,0.6,1.6c0.2,0.5,0.4,1,0.5,1.4c0.4,1,0.7,2,1,3
		c0.1,0.3,0.2,0.6,0.3,1c0,0.1,0,0.1,0.1,0.2c0,0.1,0.1,0.2,0.1,0.3c0,0.1,0,0.2,0.1,0.3c0.1,0.2,0.1,0.5,0.2,0.7
		c0.1,0.2,0.1,0.5,0.2,0.7c0.2,0.6,0.3,1.2,0.5,1.7c3.4,8.1,6.4,16.5,8.7,25.1c0.1,0.3,0.2,0.6,0.2,0.9
		C354.9,476,357.4,494.1,357.4,512.9z"/>
	<path class="st1" d="M265,396.7c-0.8,4.2-2.2,8.1-4.4,11.6c-0.9-3.4-2.2-7.1-3.4-10.3c-1.1-3.7-2.4-7-2.8-8.3
		c-2.6-7.7-6.4-15.1-11-21.8c-7.2-10.5-16.6-19.5-27.5-26.1c-3-1.8-6.2-3.5-9.5-4.9c0.1,9.4,0.3,18.8,0.4,28.2
		c0.4,26.3,0.7,52.6,1.1,78.9c0.4,29,3.9,62.7-12.9,88.1c-2.8,4.3-6.2,8.1-9.9,11.6c-10,9.1-22.8,15.2-36.1,17.8
		c-13.5,2.6-27.9,1.8-40.6-3.7C95.8,552.4,85,542.2,80,529.3c-5-13.1-3.7-28.2,2.3-40.9c4.6-9.7,11.8-18.1,20.4-24.5
		c6.1-4.6,12.9-8.2,20.1-10.8c8.7-3.1,17.9-4.7,27.1-4.8h0.9c2.5,0,22.5,1.5,27.1,4.2V250.4c0-5.3-0.1-10.6-0.2-16
		c0-1.4,0-2.8-0.1-4.2c1.2,2.3,2.4,4.6,3.6,6.9c16.6,31.9,38.9,58.5,60.5,86.9C257.9,344.9,270.4,369.7,265,396.7z"/>
	
		<radialGradient id="SVGID_3_" cx="127.6246" cy="286.9798" r="180.4812" fx="125.317" fy="412.0328" gradientTransform="matrix(1 0 0 -1 0 779.52)" gradientUnits="userSpaceOnUse">
		<stop  offset="0.2991" style="stop-color:#00FFFF"/>
		<stop  offset="0.4579" style="stop-color:#00FCFF"/>
		<stop  offset="0.5534" style="stop-color:#00F4FF"/>
		<stop  offset="0.6321" style="stop-color:#00E6FF"/>
		<stop  offset="0.7018" style="stop-color:#00D1FF"/>
		<stop  offset="0.7654" style="stop-color:#00B7FF"/>
		<stop  offset="0.8247" style="stop-color:#0097FF"/>
		<stop  offset="0.8806" style="stop-color:#0070FF"/>
		<stop  offset="0.9338" style="stop-color:#0044FF"/>
		<stop  offset="0.983" style="stop-color:#0013FF"/>
		<stop  offset="1" style="stop-color:#0000FF"/>
	</radialGradient>
	<path class="st18" d="M283.1,492.2c0,1.4,0,2.9,0,4.4c-0.3,13.9-2.7,27.4-6.8,40.4c-3.5,11.2-8.3,22-14,32.5
		c-3.5,6.5-7.4,12.7-11.7,18.6c-12.4,17.2-28,31.4-47.7,41.1c-43,21.2-96.3,15.2-138.7-4.4c-25.9-12-48.1-30.6-64.3-53.5
		c-11.2-15.9-19.4-33.9-23.9-53.2c-2.2-9.3-3.4-18.8-3.7-28.3c-0.2-7.7,0.2-15.3,1.2-22.9c0.5-3.3,1-6.7,1.7-10v0c0,0,0,0,0-0.1v0
		c2.3-11.1,6-21.9,10.9-32.2c1-2,2-4,3-6c5.2-9.7,11.7-18.7,19-26.9c0,0,0,0,0,0c22.5-25.2,53.8-42.4,87.6-47.4
		c20.9-3,42.4-2.3,63,2.3c1.3,0.3,2.6,0.6,3.8,0.9c3.3,0.8,6.6,1.7,9.9,2.8c1.8,0.6,3.6,1.2,5.5,1.8v100.2c-4.5-2.7-24.5-4.1-27-4.2
		h-1c-9.2,0-18.5,1.6-27.1,4.8c-7.1,2.6-14,6.2-20.1,10.8c-8.6,6.5-15.8,14.8-20.4,24.5c-6.1,12.7-7.4,27.8-2.3,40.9
		c4.9,12.9,15.7,23.1,28.4,28.5c12.7,5.4,27.1,6.3,40.6,3.7c13.3-2.6,26.1-8.7,36.1-17.8c3.8-3.4,7.1-7.3,9.9-11.6
		c16.9-25.5,13.3-59.1,12.9-88.1c-0.4-26.3-0.7-52.6-1.1-78.9c24.4,13.6,45.3,33.1,58.6,57.6C277,443.9,282.9,468.1,283.1,492.2z"/>
	
		<linearGradient id="SVGID_4_" gradientUnits="userSpaceOnUse" x1="338.4183" y1="343.99" x2="338.7036" y2="343.99" gradientTransform="matrix(1 0 0 -1 0 779.52)">
		<stop  offset="4.888180e-07" style="stop-color:#00FFFF"/>
		<stop  offset="1" style="stop-color:#0000FF"/>
	</linearGradient>
	<path class="st19" d="M338.7,436.1c-0.1-0.3-0.2-0.7-0.3-1.1"/>
	
		<linearGradient id="SVGID_5_" gradientUnits="userSpaceOnUse" x1="415.8394" y1="211.7305" x2="88.668" y2="538.9021" gradientTransform="matrix(1 0 0 -1 0 779.52)">
		<stop  offset="3.594250e-07" style="stop-color:#00FFFF"/>
		<stop  offset="1" style="stop-color:#0000FF"/>
	</linearGradient>
	<path class="st20" d="M412.4,494.9c-4,43-19.1,83.7-43,118.1c-12.2,14.7-26.7,28-43.1,39.5c-9.9,7.2-20.3,13.6-31.2,19.2
		c-11.3,5.8-23,10.8-35,15c-10,3.4-20.1,6.9-30.5,9c-6.1,1.2-12.3,2.3-18.6,3.1c-11.2,1.5-22.3,2.3-33.2,2.5c-0.6,0-1.2,0-1.8,0H176
		c-0.1,0-0.1,0-0.2,0c10.9-0.1,21.9-0.9,33-2.5c1.2-0.2,2.5-0.3,3.7-0.5c0.7-0.1,1.4-0.2,2.1-0.3c0.5-0.1,0.9-0.1,1.4-0.2
		c1.1-0.2,2.2-0.4,3.3-0.6c2-0.3,4-0.7,6-1.1c0.9-0.2,1.8-0.4,2.7-0.5c0.4-0.1,0.8-0.2,1.1-0.2c2-0.4,3.9-0.8,5.8-1.3
		c0.2,0,0.3-0.1,0.5-0.1c3.6-1.2,7.2-2.6,10.8-4.1c2.4-1,4.7-2,7-3.1c0.6-0.3,1.2-0.6,1.8-0.9c0.2-0.1,0.3-0.2,0.5-0.2
		c0.2-0.1,0.3-0.2,0.5-0.2c0.3-0.2,0.6-0.3,1-0.5c0.6-0.3,1.2-0.6,1.8-0.9c0.2-0.1,0.4-0.2,0.5-0.3c0.6-0.3,1.2-0.7,1.8-1
		c0.7-0.4,1.4-0.8,2.1-1.2c0.7-0.4,1.4-0.8,2-1.2c0.5-0.3,1.1-0.6,1.6-1c1-0.6,2-1.2,3-1.8c0.5-0.3,0.9-0.6,1.4-0.9
		c0.5-0.3,0.9-0.6,1.4-0.9c0.2-0.2,0.5-0.3,0.7-0.4c0.6-0.4,1.3-0.9,1.9-1.3c1.3-0.9,2.6-1.8,3.9-2.8c47.1-33,78.4-91.6,78.4-158.3
		c0-18.8-2.5-36.9-7.1-54c-0.1-0.3-0.1-0.6-0.2-0.9c-2.4-8.7-5.3-17-8.7-25.1c-0.1-0.6-0.3-1.2-0.5-1.7c-0.1-0.2-0.1-0.5-0.2-0.7
		c-0.1-0.2-0.1-0.5-0.2-0.7c0-0.1,0-0.2-0.1-0.3c0-0.1-0.1-0.2-0.1-0.3c0-0.1,0-0.1-0.1-0.2c-0.1-0.3-0.2-0.6-0.3-1
		c-0.3-1-0.7-2-1-3c-0.2-0.5-0.3-1-0.5-1.4c-0.2-0.5-0.4-1.1-0.6-1.6c-0.2-0.6-0.5-1.2-0.7-1.8c-0.1-0.2-0.2-0.4-0.2-0.6
		c-0.3-0.7-0.5-1.3-0.9-2c0-0.1,0-0.1-0.1-0.2c0-0.1,0-0.1-0.1-0.2c-0.3-0.7-0.6-1.4-0.9-2.1c-0.3-0.8-0.7-1.5-1.1-2.3
		c-0.2-0.4-0.4-0.8-0.6-1.3c0-0.1-0.1-0.1-0.1-0.2c0,0,0-0.1-0.1-0.1c-0.3-0.5-0.5-1.1-0.8-1.7c-0.4-0.8-0.8-1.7-1.2-2.5
		c-1-1.9-2-3.7-3-5.6c-0.2-0.3-0.4-0.7-0.6-1c-0.2-0.3-0.4-0.7-0.6-1c-0.4-0.7-0.8-1.4-1.2-2c-0.3-0.5-0.5-0.9-0.8-1.4
		c-0.8-1.4-1.6-2.7-2.4-4.1c-0.3-0.5-0.5-0.9-0.8-1.4c-0.5-0.9-1.1-1.8-1.7-2.7c-0.6-0.9-1.1-1.8-1.7-2.7c-1.1-1.8-2.3-3.6-3.5-5.4
		c-0.6-0.9-1.2-1.8-1.8-2.6c-0.6-0.9-1.2-1.8-1.8-2.6c-0.6-0.9-1.2-1.8-1.8-2.6c-0.3-0.4-0.6-0.9-0.9-1.3c-0.3-0.4-0.6-0.9-0.9-1.3
		c-0.6-0.9-1.2-1.7-1.8-2.5c-1.1-1.5-2.2-3-3.3-4.5c-0.5-0.7-1-1.4-1.5-2.1c-2.6-3.5-5.1-6.9-7.6-10.1c-0.5-0.6-1-1.3-1.5-1.9
		c-0.5-0.6-1-1.2-1.5-1.9c-0.4-0.5-0.9-1.1-1.3-1.6c-0.1-0.1-0.2-0.3-0.3-0.4c0,0,0-0.1-0.1-0.1c-0.2-0.3-0.5-0.6-0.7-0.9
		c-0.2-0.3-0.4-0.6-0.7-0.8c-0.9-1.1-1.7-2.1-2.5-3.1c-0.4-0.5-0.9-1.1-1.3-1.6c-0.3-0.4-0.6-0.7-0.9-1.1c-0.2-0.3-0.5-0.6-0.7-0.8
		c-0.4-0.5-0.8-0.9-1.1-1.4c-0.3-0.4-0.6-0.7-0.9-1.1c-0.6-0.7-1.1-1.4-1.7-2c-0.4-0.4-0.7-0.9-1.1-1.3c-0.2-0.2-0.4-0.4-0.5-0.6
		c-0.3-0.4-0.7-0.8-1-1.2c-0.2-0.2-0.3-0.4-0.5-0.6c-0.3-0.4-0.6-0.7-0.9-1.1c-0.7-0.9-1.4-1.6-2-2.3c-0.4-0.4-0.7-0.8-1-1.2
		c-0.2-0.3-0.5-0.5-0.6-0.7c-0.1-0.1-0.2-0.2-0.3-0.3c-0.5-0.6-1-1.1-1.2-1.4c0,0-0.1-0.1-0.1-0.1c-0.2-0.2-0.3-0.3-0.3-0.3
		c-7.9-8.8-16.4-16.8-23.5-26.3c-0.4-0.6-0.9-1.2-1.3-1.8c-1-1.3-1.9-2.6-2.8-3.9c-0.4-0.5-0.7-1-1-1.5c-0.4-0.6-0.8-1.2-1.2-1.9
		c-0.4-0.6-0.8-1.2-1.2-1.8l-1.5-2.3c0-0.1-0.1-0.1-0.1-0.2c0,0,0-0.1-0.1-0.1c0,0-0.1-0.1-0.1-0.1c-0.5-0.9-1.1-1.7-1.6-2.6
		c-1.1-1.8-2.1-3.6-3.1-5.5c-0.3-0.5-0.6-1-0.9-1.5c-0.3-0.5-0.5-1-0.8-1.5c-0.5-1-1.1-2.1-1.6-3.1c0,0,0-0.1-0.1-0.1
		c-0.5-0.9-0.9-1.9-1.4-2.8c-0.1-0.1-0.2-0.3-0.2-0.5c-0.5-1-0.9-1.9-1.3-2.9c0,0,0-0.1,0-0.1c-0.5-1-1-2.1-1.4-3.1
		c-0.3-0.8-0.7-1.5-1-2.3c-0.2-0.5-0.4-0.9-0.6-1.4c-0.3-0.8-0.6-1.6-0.9-2.4c-0.3-0.7-0.6-1.5-0.8-2.2c-0.1-0.2-0.1-0.3-0.2-0.5
		c-0.2-0.6-0.5-1.3-0.7-1.9c-0.3-0.9-0.6-1.8-1-2.8c-0.3-0.9-0.6-1.7-0.8-2.6c-0.2-0.7-0.5-1.5-0.7-2.2c-0.2-0.7-0.4-1.5-0.6-2.2
		c-0.2-0.7-0.4-1.5-0.6-2.2c-3.6-13.2-5.6-26.7-5.8-40.6c0-2.1,0-4.1,0-6.2c0-1.3,0.1-2.6,0.1-3.9c0.2-4.6,0.6-9.3,1.2-13.9
		c0.1-1.1,0.3-2.2,0.5-3.4c0-0.2,0.1-0.4,0.1-0.5c0.3-1.9,0.6-3.7,0.9-5.5c1-5,2.2-10.1,3.6-15c0-0.1,0-0.1,0.1-0.2
		c4.3-15.1,10.6-29.6,18.5-43.1c4.5-7.6,9.4-14.8,14.9-21.7c0,0,0,0,0,0c3.9-4.5,8-8.7,12.2-12.8c3.6-3.6,7.3-7.2,11-10.9
		c0.5-0.6,1.1-1.1,1.6-1.7c0,0,0,0,0,0c0,0,0,0,0,0c0,0,0.1,0,0.1,0c0,0,0,0,0.1,0c0.1,0,0.1,0,0.2-0.1c0,0,0,0,0,0
		c0.3-0.1,0.6-0.2,0.8-0.4c0,0,0,0,0,0c0,0.1,0,0.1,0,0.2c0,0,0,0,0,0c0,0.1,0,0.1-0.1,0.2c0,0.1,0,0.1,0,0.1c0,0.1,0,0.1,0,0.2
		c0,0,0,0.1,0,0.1c-5,17.7-8.9,34.9-8.9,53.5c0,25.2,6.9,49.8,16.9,72.8c2.8,6.4,5.7,12.7,8.9,18.9c1.6,3.1,3.3,6.2,4.9,9.2
		c1.6,2.9,2.9,5.9,4.4,8.8c2.8,4.6,5,9.5,7.5,14.3c1.9,3.5,3.9,7,5.9,10.5c2,3.4,4.3,6.5,6.4,9.8c1.2,2,2.4,4.1,3.6,6.2
		c4.7,7.9,9.6,15.8,14.5,23.6c7.6,12.1,15.2,24.3,22.8,36.4c7.6,12.1,15.2,24.3,22.8,36.4c6.8,11,11.4,23.7,15.4,35.9
		c0.6,1.8,1.1,3.6,1.7,5.4c3.6,11.8,6.3,23.6,8.2,35.4C413.8,453.3,414.4,474.4,412.4,494.9z"/>
	<path class="st6" d="M253.2,686.7c-2.3,1.1-4.6,2.2-7,3.1c-3.5,1.5-7.1,2.9-10.8,4.1c-0.2,0-0.3,0.1-0.5,0.1c0.7-0.2,1.3-0.4,2-0.7
		C242.5,691.3,247.9,689.2,253.2,686.7z"/>
	<path class="st14" d="M561,416c0.6-0.7,1.2-1.3,1.8-2c-0.5,0.5-1,1.1-1.5,1.6C561.2,415.8,561.1,415.9,561,416z"/>
</g>
<g id="bg" class="st0">
	<rect x="-444.5" y="-141.7" class="st7" width="1419" height="1042"/>
</g>
<g id="merged_copy_2">
	<path class="st21" d="M392.3,1.1c0,0.1,0,0.1,0,0.2c0,0,0,0,0,0C392.3,1.2,392.3,1.2,392.3,1.1z"/>
	
		<linearGradient id="SVGID_6_" gradientUnits="userSpaceOnUse" x1="1.000214e-02" y1="186.06" x2="5.63" y2="186.06" gradientTransform="matrix(1 0 0 -1 0 779.52)">
		<stop  offset="4.888180e-07" style="stop-color:#00FFFF"/>
		<stop  offset="1" style="stop-color:#0000FF"/>
	</linearGradient>
	<path class="st22" d="M2.1,597.1c0.9,6.5,2.1,12.8,3.6,19C2,604.1,0,591.3,0,578.1c0-2.5,0.1-4.9,0.2-7.3c0,4.4,0.2,8.8,0.5,13.2
		c0,0,0,0,0,0C1,588.4,1.5,592.7,2.1,597.1z"/>
	<path class="st23" d="M344.9,784.5c-0.8,0.3-1.6,0.6-2.4,0.8c0.2,0,0.4-0.1,0.6-0.1c4.5-1.5,8.9-3.2,13.2-5
		c2.9-1.2,5.7-2.5,8.5-3.8C358.3,779.4,351.6,782,344.9,784.5z"/>
	
		<radialGradient id="SVGID_7_" cx="100.6954" cy="317.7202" r="402.9075" gradientTransform="matrix(1.2273 0 0 -1.2272 122.9649 787.5365)" gradientUnits="userSpaceOnUse">
		<stop  offset="0" style="stop-color:#00FFFF"/>
		<stop  offset="0.1043" style="stop-color:#00FBFF"/>
		<stop  offset="0.2037" style="stop-color:#00F0FF"/>
		<stop  offset="0.3011" style="stop-color:#00DCFF"/>
		<stop  offset="0.3974" style="stop-color:#00C1FF"/>
		<stop  offset="0.4929" style="stop-color:#009FFF"/>
		<stop  offset="0.5878" style="stop-color:#0074FF"/>
		<stop  offset="0.6822" style="stop-color:#0041FF"/>
		<stop  offset="0.774" style="stop-color:#0008FF"/>
		<stop  offset="0.7858" style="stop-color:#0000FF"/>
	</radialGradient>
	<path class="st24" d="M492.7,563.1c0,81.8-38.4,153.7-96.2,194.2c-1.6,1.2-3.2,2.3-4.8,3.4c-0.8,0.5-1.6,1.1-2.4,1.6
		c-0.3,0.2-0.5,0.4-0.8,0.5c-0.6,0.4-1.1,0.7-1.7,1.1c-0.6,0.4-1.1,0.8-1.7,1.1c-1.2,0.8-2.4,1.5-3.6,2.2c-0.7,0.4-1.3,0.8-2,1.2
		c-0.8,0.5-1.7,1-2.5,1.5c-0.8,0.5-1.7,1-2.5,1.4c-0.8,0.4-1.5,0.8-2.2,1.2c-0.2,0.1-0.4,0.2-0.7,0.3c-0.7,0.4-1.5,0.8-2.2,1.1
		c-0.4,0.2-0.8,0.4-1.2,0.6c-0.4,0.2-0.8,0.4-1.2,0.6c-0.7,0.4-1.5,0.7-2.2,1.1c-6.5,3.1-13.2,5.7-19.9,8.2
		c-0.8,0.3-1.6,0.6-2.4,0.8c-2.4,0.6-4.7,1.1-7.1,1.6c-0.5,0.1-0.9,0.2-1.4,0.3c-1.1,0.2-2.2,0.5-3.3,0.7c-2.5,0.5-4.9,1-7.4,1.4
		c-1.3,0.2-2.7,0.5-4,0.7c-0.6,0.1-1.2,0.2-1.7,0.3c-0.9,0.1-1.8,0.3-2.6,0.4c-1.5,0.2-3,0.5-4.5,0.7c-13.6,1.8-27.1,2.8-40.4,3
		c0.1,0,0.1,0,0.2,0c-12.6,0.1-25-0.5-37.2-1.8c-51.2-5.5-101.4-23.2-142.8-53.7c-38.5-28.3-68.5-67.7-81.9-113.4
		c-1-3.4-1.9-6.7-2.7-10.1c-12.1-51.9-2.1-106.5,25.3-152.5c3.1-5.2,6.4-10.2,9.9-15.2c-1.3,2.4-2.5,4.8-3.7,7.3
		c-6.1,12.6-10.5,25.9-13.4,39.5v0c0,0,0,0,0,0.1v0c-0.8,4-1.6,8.1-2.1,12.2c-1.3,9.3-1.8,18.7-1.5,28c0.4,11.7,1.9,23.3,4.5,34.7
		c5.5,23.7,15.6,45.8,29.3,65.3c19.8,28.1,47.1,50.9,78.9,65.7c52,24,117.5,31.4,170.3,5.4c24.1-11.9,43.3-29.4,58.5-50.5
		c5.2-7.2,10-14.8,14.3-22.8c7-12.8,12.9-26.2,17.2-39.9c5-16,8-32.5,8.4-49.6c0-1.8,0-3.6,0-5.3c-0.2-29.6-7.5-59.2-21.6-85.3
		c-16.2-30-42-53.9-71.9-70.7c-0.2-11.5-0.3-23-0.5-34.6c4,1.8,7.9,3.8,11.6,6c13.4,8.1,25,19.2,33.8,32
		c5.7,8.2,10.2,17.3,13.5,26.7c0.5,1.6,2,5.7,3.5,10.2c1.5,3.8,3.1,8.4,4.2,12.6c2.6-4.3,4.3-9.1,5.3-14.2
		c6.6-33.2-8.8-63.6-28.4-89.4c-26.5-34.8-54-67.4-74.3-106.6c-1.5-2.8-2.9-5.6-4.4-8.4c0,1.7,0,3.5,0.1,5.2
		c0.1,6.5,0.2,13.1,0.2,19.6v125c-2.2-0.8-4.5-1.5-6.7-2.2c-4-1.2-8.1-2.4-12.2-3.4c-14.8-14.7-24.6-35.2-32.7-53.7
		c-11-25.1-16.5-52.7-16.5-80c0-5.8,0.3-11.6,0.7-17.3c4.2-48.3,26.2-93.4,59.1-129.1c33.8-36.7,77.6-63,125-78.7c0,0,0,0,0,0
		c0.5-0.2,1.1-0.4,1.6-0.5c-0.7,0.7-1.3,1.4-2,2.1c-4.5,4.5-9,8.9-13.4,13.3c-5.1,5.1-10.1,10.3-14.9,15.7c0,0,0,0,0,0
		c-6.7,8.4-12.8,17.4-18.3,26.6c-9.7,16.6-17.4,34.4-22.7,52.8c0,0.1,0,0.2-0.1,0.2c-1.7,6.1-3.2,12.2-4.4,18.4c0,0,0,0,0,0
		c-0.4,2.2-0.8,4.5-1.1,6.8c0,0.2-0.1,0.4-0.1,0.7c-0.2,1.4-0.4,2.8-0.5,4.1c-0.7,5.7-1.2,11.4-1.4,17.1c-0.1,1.6-0.1,3.2-0.2,4.8
		c-0.1,2.5-0.1,5.1,0,7.6c0.2,17,2.6,33.6,7.1,49.8c0.2,0.9,0.5,1.8,0.8,2.7c0.3,0.9,0.5,1.8,0.8,2.7c0.3,0.9,0.5,1.8,0.8,2.7
		c0.3,1.1,0.7,2.1,1,3.2c0.4,1.1,0.8,2.2,1.2,3.4c0.3,0.8,0.6,1.6,0.9,2.3c0.1,0.2,0.1,0.4,0.2,0.6c0.3,0.9,0.7,1.8,1,2.7
		c0.4,1,0.8,1.9,1.1,2.9c0.2,0.6,0.5,1.1,0.7,1.7c0.4,0.9,0.8,1.9,1.2,2.8c0.5,1.3,1.1,2.6,1.7,3.9c0,0,0,0.1,0,0.1
		c0.5,1.2,1.1,2.4,1.6,3.5c0.1,0.2,0.2,0.4,0.3,0.5c0.5,1.1,1.1,2.3,1.7,3.5c0,0,0,0.1,0.1,0.1c0.6,1.3,1.3,2.6,2,3.8
		c0.3,0.6,0.7,1.3,1,1.9c0.3,0.6,0.7,1.3,1,1.9c1.2,2.3,2.5,4.5,3.9,6.7c0.6,1.1,1.3,2.1,2,3.2c0,0,0.1,0.1,0.1,0.2
		c0,0,0,0.1,0.1,0.1c0,0.1,0.1,0.2,0.1,0.2l1.8,2.9c0.5,0.8,1,1.5,1.5,2.2c0.5,0.8,1,1.5,1.5,2.3c0.4,0.6,0.9,1.3,1.3,1.9
		c1.1,1.6,2.2,3.2,3.4,4.7c0.5,0.7,1.1,1.5,1.6,2.2c8.8,11.7,19.2,21.4,28.9,32.3c0,0,0.2,0.2,0.4,0.4c0,0,0.1,0.1,0.1,0.2
		c0.3,0.4,0.9,1,1.5,1.7c0.1,0.1,0.2,0.3,0.4,0.4c0.2,0.3,0.5,0.6,0.8,0.9c0.4,0.4,0.8,0.9,1.2,1.4c0.7,0.9,1.5,1.8,2.5,2.9
		c0.4,0.4,0.7,0.9,1.1,1.3c0.2,0.2,0.4,0.5,0.6,0.7c0.4,0.5,0.8,0.9,1.2,1.4c0.2,0.3,0.4,0.5,0.6,0.8c0.4,0.5,0.9,1,1.3,1.6
		c0.7,0.8,1.4,1.6,2.1,2.5c0.4,0.4,0.7,0.9,1.1,1.3c0.5,0.6,0.9,1.1,1.4,1.7c0.3,0.3,0.6,0.7,0.8,1c0.4,0.5,0.8,0.9,1.1,1.4
		c0.5,0.7,1.1,1.3,1.6,2c1,1.2,2,2.5,3.1,3.8c0.3,0.3,0.5,0.7,0.8,1c0.3,0.3,0.5,0.7,0.9,1.1c0,0,0.1,0.1,0.1,0.1
		c0.1,0.2,0.3,0.3,0.4,0.5c0.5,0.6,1,1.3,1.6,2c0.6,0.8,1.2,1.5,1.8,2.3c0.6,0.8,1.2,1.5,1.8,2.3c3,3.9,6.2,8,9.3,12.4
		c0.6,0.9,1.3,1.7,1.9,2.6c1.3,1.8,2.7,3.7,4,5.5c0.7,1,1.5,2.1,2.2,3.1c0.4,0.5,0.8,1.1,1.1,1.6c0.4,0.5,0.7,1.1,1.1,1.6
		c0.8,1.1,1.5,2.1,2.2,3.2c0.7,1.1,1.5,2.2,2.2,3.2c0.7,1.1,1.5,2.2,2.2,3.2c1.4,2.2,2.9,4.4,4.3,6.6c0.7,1.1,1.4,2.2,2.1,3.3
		c0.7,1.1,1.4,2.2,2,3.3c0.4,0.5,0.7,1.1,1,1.7c1,1.7,2,3.3,3,5c0.3,0.5,0.6,1.1,1,1.7c0.5,0.8,1,1.7,1.4,2.5
		c0.2,0.4,0.5,0.8,0.7,1.2c0.2,0.4,0.5,0.8,0.7,1.2c1.3,2.3,2.5,4.6,3.7,6.9c0.5,1,1,2,1.5,3.1c0.3,0.7,0.7,1.3,1,2
		c0,0.1,0.1,0.1,0.1,0.2c0,0.1,0.1,0.2,0.1,0.2c0.2,0.5,0.5,1,0.7,1.6c0.5,0.9,0.9,1.9,1.3,2.8c0.4,0.9,0.8,1.7,1.1,2.5
		c0,0.1,0.1,0.1,0.1,0.2c0,0.1,0.1,0.2,0.1,0.2c0.4,0.8,0.7,1.6,1,2.4c0.1,0.3,0.2,0.5,0.3,0.8c0.3,0.7,0.6,1.4,0.9,2.2
		c0.3,0.7,0.5,1.3,0.8,2c0.2,0.6,0.4,1.2,0.6,1.7c0.4,1.2,0.9,2.4,1.2,3.7c0.1,0.4,0.3,0.8,0.4,1.2c0,0.1,0,0.2,0.1,0.2
		c0,0.1,0.1,0.3,0.1,0.4c0,0.1,0.1,0.2,0.1,0.3c0.1,0.3,0.2,0.6,0.2,0.8c0.1,0.3,0.2,0.6,0.2,0.8c0.2,0.7,0.4,1.4,0.6,2.1
		c4.2,9.9,7.8,20.2,10.7,30.8c0.1,0.4,0.2,0.7,0.3,1.1C489.6,517.8,492.7,540.1,492.7,563.1z"/>
	<path class="st12" d="M379.3,420.5c-1,5.2-2.8,10-5.3,14.2c-1.1-4.2-2.7-8.7-4.2-12.6c-1.4-4.5-2.9-8.6-3.5-10.2
		c-3.2-9.5-7.8-18.5-13.5-26.7c-8.8-12.9-20.4-24-33.8-32c-3.7-2.2-7.6-4.3-11.6-6c0.2,11.5,0.3,23,0.5,34.6
		c0.4,32.3,0.9,64.5,1.3,96.8c0.5,35.6,4.8,76.9-15.8,108.2c-3.5,5.2-7.6,10-12.2,14.2c-12.2,11.2-27.9,18.7-44.3,21.8
		c-16.6,3.2-34.2,2.2-49.8-4.5c-15.6-6.7-28.8-19.2-34.9-35c-6.2-16.1-4.6-34.7,2.9-50.2c5.7-12,14.5-22.2,25.1-30.1
		c7.5-5.6,15.9-10.1,24.6-13.3c10.6-3.8,22-5.8,33.3-5.8h1.2c3.1,0,27.6,1.8,33.2,5.1v-248c0-6.5-0.1-13.1-0.2-19.6
		c0-1.7,0-3.5-0.1-5.2c1.5,2.8,2.9,5.6,4.4,8.4c20.4,39.2,47.8,71.7,74.3,106.6C370.5,356.9,385.9,387.4,379.3,420.5z"/>
	
		<radialGradient id="SVGID_8_" cx="71.4357" cy="203.2452" r="180.4727" fx="69.1281" fy="328.2924" gradientTransform="matrix(1.2273 0 0 -1.2272 122.9649 787.5365)" gradientUnits="userSpaceOnUse">
		<stop  offset="0.2991" style="stop-color:#00FFFF"/>
		<stop  offset="0.4579" style="stop-color:#00FCFF"/>
		<stop  offset="0.5534" style="stop-color:#00F4FF"/>
		<stop  offset="0.6321" style="stop-color:#00E6FF"/>
		<stop  offset="0.7018" style="stop-color:#00D1FF"/>
		<stop  offset="0.7654" style="stop-color:#00B7FF"/>
		<stop  offset="0.8247" style="stop-color:#0097FF"/>
		<stop  offset="0.8806" style="stop-color:#0070FF"/>
		<stop  offset="0.9338" style="stop-color:#0044FF"/>
		<stop  offset="0.983" style="stop-color:#0013FF"/>
		<stop  offset="1" style="stop-color:#0000FF"/>
	</radialGradient>
	<path class="st25" d="M401.4,537.7c0,1.8,0,3.6,0,5.3c-0.4,17.1-3.4,33.6-8.4,49.6c-4.3,13.7-10.2,27-17.2,39.9
		c-4.3,8-9.1,15.6-14.3,22.8c-15.2,21.1-34.4,38.6-58.5,50.5c-52.8,26-118.2,18.7-170.3-5.4c-31.8-14.7-59.1-37.5-78.9-65.7
		C40,615.1,29.9,593,24.4,569.3c-2.6-11.4-4.2-23-4.5-34.7c-0.3-9.4,0.2-18.8,1.5-28c0.6-4.1,1.3-8.2,2.1-12.2v0c0,0,0,0,0-0.1v0
		c2.9-13.6,7.3-26.9,13.4-39.5c1.2-2.5,2.4-4.9,3.7-7.3c6.4-11.9,14.3-23,23.3-33c0,0,0,0,0,0c27.6-30.9,66-52.1,107.6-58.1
		c25.6-3.7,52-2.8,77.3,2.9c1.6,0.3,3.1,0.7,4.7,1.1c4.1,1,8.1,2.1,12.2,3.4c2.2,0.7,4.5,1.4,6.7,2.2v123
		c-5.6-3.3-30.1-5.1-33.2-5.1h-1.2c-11.3,0-22.7,2-33.3,5.8c-8.8,3.2-17.1,7.6-24.6,13.3c-10.6,7.9-19.4,18.1-25.1,30.1
		c-7.4,15.6-9.1,34.1-2.9,50.2c6.1,15.8,19.3,28.4,34.9,35c15.6,6.7,33.2,7.7,49.8,4.5c16.4-3.2,32.1-10.7,44.3-21.8
		c4.6-4.2,8.7-9,12.2-14.2c20.7-31.2,16.3-72.5,15.8-108.2c-0.4-32.3-0.9-64.5-1.3-96.8c29.9,16.7,55.6,40.7,71.9,70.7
		C393.9,478.4,401.2,508.1,401.4,537.7z"/>
	
		<linearGradient id="SVGID_9_" gradientUnits="userSpaceOnUse" x1="469.3472" y1="311.38" x2="469.6972" y2="311.38" gradientTransform="matrix(1 0 0 -1 0 779.52)">
		<stop  offset="4.888180e-07" style="stop-color:#00FFFF"/>
		<stop  offset="1" style="stop-color:#0000FF"/>
	</linearGradient>
	<path class="st26" d="M469.7,468.8c-0.1-0.4-0.2-0.9-0.3-1.3"/>
	
		<linearGradient id="SVGID_10_" gradientUnits="userSpaceOnUse" x1="564.3061" y1="149.0139" x2="162.8019" y2="550.5184" gradientTransform="matrix(1 0 0 -1 0 779.52)">
		<stop  offset="3.594250e-07" style="stop-color:#00FFFF"/>
		<stop  offset="1" style="stop-color:#0000FF"/>
	</linearGradient>
	<path class="st27" d="M560.2,541c-5,52.7-23.4,102.7-52.8,145c-15,18-32.8,34.3-52.9,48.5c-12.1,8.8-24.9,16.7-38.3,23.6
		c-13.8,7.2-28.2,13.3-43,18.4c-12.2,4.2-24.7,8.4-37.4,11c-7.5,1.5-15.1,2.8-22.8,3.8c-13.8,1.8-27.4,2.8-40.8,3
		c-0.7,0-1.4,0-2.1,0H270c-0.1,0-0.1,0-0.2,0c13.3-0.2,26.8-1.2,40.4-3c1.5-0.2,3-0.4,4.5-0.7c0.9-0.1,1.7-0.2,2.6-0.4
		c0.6-0.1,1.1-0.2,1.7-0.3c1.3-0.2,2.7-0.5,4-0.7c2.5-0.4,4.9-0.9,7.4-1.4c1.1-0.2,2.2-0.4,3.3-0.7c0.5-0.1,0.9-0.2,1.4-0.3
		c2.4-0.5,4.8-0.9,7.1-1.6c0.2,0,0.4-0.1,0.6-0.1c4.5-1.5,8.9-3.2,13.2-5c2.9-1.2,5.7-2.5,8.5-3.8c0.7-0.3,1.5-0.7,2.2-1.1
		c0.2-0.1,0.4-0.2,0.6-0.3c0.2-0.1,0.4-0.2,0.6-0.3c0.4-0.2,0.8-0.4,1.2-0.6c0.7-0.4,1.5-0.8,2.2-1.1c0.2-0.1,0.4-0.2,0.7-0.3
		c0.8-0.4,1.5-0.8,2.2-1.2c0.9-0.5,1.7-0.9,2.5-1.4c0.9-0.5,1.7-1,2.5-1.5c0.7-0.4,1.3-0.8,2-1.2c1.2-0.7,2.4-1.5,3.6-2.2
		c0.6-0.4,1.1-0.7,1.7-1.1c0.6-0.4,1.1-0.7,1.7-1.1c0.3-0.2,0.5-0.4,0.8-0.5c0.8-0.5,1.6-1.1,2.4-1.6c1.6-1.1,3.2-2.2,4.8-3.4
		c57.8-40.5,96.2-112.4,96.2-194.2c0-23.1-3.1-45.3-8.7-66.3c-0.1-0.4-0.2-0.7-0.3-1.1c-2.9-10.6-6.5-20.9-10.7-30.8
		c-0.2-0.7-0.4-1.4-0.6-2.1c-0.1-0.3-0.2-0.5-0.2-0.8c-0.1-0.3-0.2-0.5-0.2-0.8c0-0.1-0.1-0.2-0.1-0.3c0-0.1-0.1-0.3-0.1-0.4
		c0-0.1,0-0.2-0.1-0.2c-0.1-0.4-0.2-0.8-0.4-1.2c-0.4-1.2-0.8-2.4-1.2-3.7c-0.2-0.6-0.4-1.2-0.6-1.7c-0.2-0.7-0.5-1.3-0.8-2
		c-0.3-0.7-0.6-1.4-0.9-2.2c-0.1-0.2-0.2-0.5-0.3-0.8c-0.3-0.8-0.7-1.6-1-2.4c0-0.1-0.1-0.2-0.1-0.2c0-0.1-0.1-0.1-0.1-0.2
		c-0.4-0.8-0.7-1.7-1.1-2.5c-0.4-0.9-0.8-1.9-1.3-2.8c-0.2-0.5-0.5-1-0.7-1.6c0-0.1-0.1-0.2-0.1-0.2c0-0.1,0-0.1-0.1-0.2
		c-0.3-0.7-0.7-1.3-1-2c-0.5-1-1-2-1.5-3.1c-1.2-2.3-2.4-4.6-3.7-6.9c-0.2-0.4-0.4-0.8-0.7-1.2c-0.2-0.4-0.5-0.8-0.7-1.2
		c-0.5-0.8-0.9-1.7-1.4-2.5c-0.3-0.5-0.6-1.1-1-1.7c-1-1.7-2-3.3-3-5c-0.3-0.6-0.7-1.1-1-1.7c-0.7-1.1-1.3-2.2-2-3.3
		c-0.7-1.1-1.4-2.2-2.1-3.3c-1.4-2.2-2.8-4.4-4.3-6.6c-0.7-1.1-1.5-2.2-2.2-3.2c-0.7-1.1-1.5-2.2-2.2-3.2c-0.7-1.1-1.5-2.2-2.2-3.2
		c-0.4-0.5-0.7-1.1-1.1-1.6c-0.4-0.5-0.7-1-1.1-1.6c-0.7-1-1.5-2.1-2.2-3.1c-1.3-1.9-2.7-3.7-4-5.5c-0.6-0.9-1.3-1.7-1.9-2.6
		c-3.2-4.3-6.3-8.4-9.3-12.4c-0.6-0.8-1.2-1.5-1.8-2.3c-0.6-0.8-1.2-1.5-1.8-2.3c-0.5-0.7-1.1-1.3-1.6-2c-0.1-0.2-0.3-0.3-0.4-0.5
		c0,0-0.1-0.1-0.1-0.1c-0.3-0.3-0.6-0.7-0.9-1.1c-0.3-0.3-0.5-0.7-0.8-1c-1-1.3-2.1-2.6-3.1-3.8c-0.5-0.6-1.1-1.3-1.6-2
		c-0.4-0.5-0.7-0.9-1.1-1.4c-0.3-0.3-0.5-0.7-0.8-1c-0.5-0.6-0.9-1.1-1.4-1.7c-0.4-0.5-0.8-0.9-1.1-1.3c-0.7-0.9-1.4-1.7-2.1-2.5
		c-0.5-0.5-0.9-1.1-1.3-1.6c-0.2-0.2-0.4-0.5-0.6-0.8c-0.4-0.5-0.8-1-1.2-1.4c-0.2-0.2-0.4-0.5-0.6-0.7c-0.4-0.4-0.8-0.9-1.1-1.3
		c-0.9-1-1.7-2-2.5-2.9c-0.4-0.5-0.9-1-1.2-1.4c-0.3-0.3-0.5-0.6-0.8-0.9c-0.1-0.1-0.2-0.3-0.4-0.4c-0.6-0.8-1.2-1.3-1.5-1.7
		c0-0.1-0.1-0.1-0.1-0.2c-0.2-0.2-0.3-0.4-0.4-0.4c-9.7-10.8-20.1-20.6-28.9-32.3c-0.5-0.7-1.1-1.5-1.6-2.2
		c-1.2-1.6-2.3-3.1-3.4-4.7c-0.4-0.6-0.9-1.3-1.3-1.9c-0.5-0.8-1-1.5-1.5-2.3c-0.5-0.8-1-1.5-1.5-2.2l-1.8-2.9
		c0-0.1-0.1-0.2-0.1-0.2c0,0,0-0.1-0.1-0.1c0-0.1-0.1-0.1-0.1-0.2c-0.6-1.1-1.3-2.1-2-3.2c-1.3-2.2-2.6-4.5-3.9-6.7
		c-0.4-0.6-0.7-1.2-1-1.9c-0.4-0.6-0.7-1.3-1-1.9c-0.7-1.3-1.3-2.5-2-3.8c0,0,0-0.1-0.1-0.1c-0.6-1.1-1.1-2.3-1.7-3.5
		c-0.1-0.2-0.2-0.4-0.3-0.5c-0.6-1.2-1.1-2.3-1.6-3.5c0,0,0-0.1,0-0.1c-0.6-1.3-1.2-2.5-1.7-3.9c-0.4-0.9-0.8-1.9-1.2-2.8
		c-0.2-0.5-0.5-1.1-0.7-1.7c-0.4-1-0.8-1.9-1.1-2.9c-0.3-0.9-0.7-1.8-1-2.7c-0.1-0.2-0.1-0.4-0.2-0.6c-0.3-0.8-0.6-1.6-0.9-2.3
		c-0.4-1.1-0.8-2.2-1.2-3.4c-0.3-1.1-0.7-2.1-1-3.2c-0.3-0.9-0.6-1.8-0.8-2.7c-0.3-0.9-0.5-1.8-0.8-2.7c-0.3-0.9-0.5-1.8-0.8-2.7
		c-4.4-16.1-6.8-32.8-7.1-49.8c0-2.5,0-5.1,0-7.6c0-1.6,0.1-3.2,0.2-4.8c0.2-5.7,0.7-11.4,1.4-17.1c0.2-1.4,0.4-2.8,0.5-4.1
		c0-0.2,0.1-0.5,0.1-0.7c0.3-2.3,0.7-4.5,1.1-6.8c1.2-6.2,2.7-12.3,4.4-18.4c0-0.1,0-0.2,0.1-0.2c5.3-18.5,13-36.3,22.7-52.9
		c5.5-9.3,11.6-18.2,18.3-26.6c0,0,0,0,0,0c4.8-5.5,9.8-10.6,14.9-15.7c4.5-4.4,9-8.8,13.4-13.3c0.7-0.7,1.4-1.4,2-2.1c0,0,0,0,0,0
		c0,0,0,0,0,0c0,0,0.1,0,0.1-0.1c0,0,0.1,0,0.1,0c0.1,0,0.2-0.1,0.2-0.1c0,0,0,0,0,0c0.4-0.1,0.7-0.3,1-0.4c0,0,0,0,0,0
		c0,0.1,0,0.1,0,0.2c0,0,0,0,0,0c0,0.1-0.1,0.2-0.1,0.3c0,0.1,0,0.1,0,0.2c0,0.1,0,0.2-0.1,0.2c0,0.1,0,0.1,0,0.2
		C386,23.1,381.3,44.1,381.3,67c0,30.9,8.5,61.1,20.7,89.3c3.4,7.8,7,15.5,10.9,23.2c1.9,3.8,4,7.6,6,11.3c1.9,3.6,3.5,7.2,5.4,10.8
		c3.4,5.6,6.2,11.7,9.2,17.5c2.3,4.3,4.7,8.6,7.2,12.9c2.4,4.1,5.3,7.9,7.8,12c1.5,2.5,3,5.1,4.5,7.6c5.8,9.7,11.8,19.4,17.8,29
		c9.3,14.9,18.6,29.8,27.9,44.7c9.3,14.9,18.6,29.8,27.9,44.7c8.4,13.4,14,29.1,18.9,44.1c0.7,2.2,1.4,4.4,2.1,6.6
		c4.4,14.5,7.8,29,10,43.5C561.8,490,562.5,515.8,560.2,541z"/>
	<path class="st28" d="M364.8,776.4c-2.8,1.4-5.7,2.7-8.5,3.8c-4.3,1.8-8.8,3.5-13.2,5c-0.2,0-0.4,0.1-0.6,0.1
		c0.8-0.2,1.6-0.5,2.4-0.8C351.6,782,358.3,779.4,364.8,776.4z"/>
	<path class="st29" d="M561,416c0.6-0.7,1.2-1.3,1.8-2c-0.5,0.5-1,1.1-1.5,1.6C561.2,415.8,561.1,415.9,561,416z"/>
</g>
</svg>
